<?xml version="1.0" encoding="utf-8"?>
<!-- Generator: Adobe Illustrator 27.5.0, SVG Export Plug-In . SVG Version: 6.00 Build 0)  -->
<svg version="1.1" xmlns="http://www.w3.org/2000/svg" xmlns:xlink="http://www.w3.org/1999/xlink" x="0px" y="0px"
	 viewBox="0 0 750 500" style="enable-background:new 0 0 750 500;" xml:space="preserve">
<g id="BACKGROUND">
	<g>
		<rect style="fill:#FFFFFF;" width="750" height="500"/>
	</g>
</g>
<g id="OBJECTS">
	<g>
		<g>
			<path style="fill:#594287;" d="M650.158,355.252c0,0,2.984-5.902,6.435-0.484c3.451,5.419-4.291,9.911-4.291,9.911
				s-6.427-6.276-5.188-8.777C648.354,353.401,650.158,355.252,650.158,355.252z"/>
			<path style="fill:#594287;" d="M625.296,396.087c0,0-2.379-6.171,3.955-5.099c6.334,1.072,4.477,9.829,4.477,9.829
				s-8.966,0.561-9.991-2.036C622.712,396.185,625.296,396.087,625.296,396.087z"/>
			<path style="fill:#594287;" d="M621.907,367.312c0.296-0.607,0.041-1.32-0.129-1.974c-0.123-0.475-0.199-0.962-0.227-1.452
				c-0.018-0.323-0.005-0.675,0.202-0.923c0.297-0.356,0.851-0.336,1.295-0.2c0.443,0.135,0.884,0.358,1.344,0.301
				c0.405-0.05,0.772-0.333,0.924-0.712c0.087-0.219,0.106-0.463,0.208-0.675c0.309-0.644,1.268-0.71,1.862-0.314
				c0.594,0.396,0.908,1.086,1.194,1.741c0.633,1.449,1.278,2.967,1.187,4.546c-0.061,1.062-0.454,2.075-0.624,3.125l-0.288-0.355
				c-0.817,0.17-1.634,0.339-2.451,0.508c-0.309,0.064-0.623,0.128-0.937,0.096c-0.574-0.06-1.059-0.431-1.565-0.709
				c-0.555-0.304-1.173-0.509-1.662-0.911c-0.489-0.402-0.826-1.094-0.568-1.673C621.738,367.585,621.837,367.456,621.907,367.312z"
				/>
			<path style="fill:#594287;" d="M659.206,372.514c0.046-0.346,0.133-0.712-0.005-1.032c-0.165-0.383-0.591-0.57-0.884-0.867
				c-0.475-0.48-0.571-1.237-0.414-1.894s0.529-1.238,0.895-1.805c0.074-0.115,0.159-0.238,0.289-0.28
				c0.132-0.042,0.275,0.011,0.4,0.072c0.736,0.356,1.329,0.996,1.629,1.757c0.062,0.156,0.118,0.327,0.252,0.429
				c0.281,0.214,0.691-0.013,0.905-0.295c0.276-0.363,0.418-0.813,0.692-1.178c0.274-0.365,0.77-0.639,1.181-0.441
				c0.456,0.221,0.507,0.858,0.379,1.348c-0.127,0.491-0.368,0.986-0.258,1.48c0.023,0.104,0.064,0.209,0.139,0.285
				c0.267,0.269,0.709,0.034,1.082-0.036c0.641-0.12,1.293,0.366,1.499,0.985c0.206,0.619,0.038,1.314-0.297,1.874
				c-0.335,0.56-0.821,1.01-1.301,1.453c-0.899,0.829-1.798,1.657-2.697,2.486l0.097,0.379
				C660.618,376.929,658.916,374.686,659.206,372.514z"/>
			<path style="fill:#594287;" d="M601.14,381.085c-0.596-0.415-0.553-1.454-1.215-1.751c-0.29-0.13-0.63-0.067-0.929,0.04
				c-0.772,0.276-1.493,0.958-1.45,1.777c0.046,0.878,0.938,1.682,0.616,2.5c-0.126,0.32-0.414,0.542-0.65,0.791
				c-0.525,0.554-0.829,1.361-0.632,2.098c0.197,0.737,0.98,1.318,1.724,1.147c0.192-0.044,0.38-0.132,0.575-0.11
				c0.751,0.087,0.605,1.49,1.333,1.692c0.313,0.087,0.628-0.108,0.895-0.294c0.999-0.697,1.994-1.401,2.985-2.109l-0.183,0.11
				c0.37-0.318,0.423-0.864,0.433-1.352c0.019-0.887-0.013-1.775-0.094-2.658c-0.063-0.691-0.242-1.497-0.88-1.77
				C602.875,380.855,601.848,381.578,601.14,381.085z"/>
			<path style="fill:#594287;" d="M634.833,389.222c0.461-0.561,0.139-1.549,0.696-2.015c0.244-0.204,0.588-0.235,0.905-0.213
				c0.818,0.057,1.696,0.519,1.876,1.319c0.193,0.857-0.447,1.873,0.083,2.573c0.208,0.274,0.545,0.409,0.84,0.586
				c0.655,0.392,1.166,1.086,1.176,1.849s-0.587,1.534-1.349,1.571c-0.196,0.009-0.401-0.025-0.583,0.05
				c-0.699,0.287-0.179,1.598-0.826,1.99c-0.278,0.168-0.634,0.066-0.941-0.041c-1.15-0.401-2.299-0.809-3.444-1.223l0.206,0.056
				c-0.443-0.206-0.641-0.717-0.783-1.185c-0.258-0.849-0.468-1.712-0.629-2.584c-0.126-0.682-0.172-1.507,0.368-1.942
				C633.102,389.471,634.285,389.888,634.833,389.222z"/>
			<path style="fill:#594287;" d="M610.6,369.034c-0.343-0.61-1.233-0.702-1.636-1.274c-0.297-0.421-0.242-1.028,0.058-1.447
				c0.3-0.418,0.803-0.66,1.312-0.731c0.541-0.076,1.179-0.013,1.539-0.424c0.184-0.211,0.244-0.5,0.312-0.772
				c0.17-0.676,0.437-1.328,0.791-1.929c0.089-0.152,0.194-0.31,0.357-0.378c0.209-0.088,0.447-0.002,0.657,0.083
				c1.035,0.418,2.137,0.89,2.736,1.833c0.326,0.514,0.468,1.119,0.605,1.712c0.157,0.679,0.314,1.358,0.47,2.038
				c0.104,0.452,0.209,0.92,0.117,1.374l0.69-0.448c0.029,0.657-0.518,1.287-1.173,1.351c-0.191,0.019-0.384-0.005-0.575,0.009
				c-0.479,0.035-0.906,0.302-1.312,0.561c-0.592,0.379-1.185,0.758-1.777,1.138c-0.512,0.328-1.046,0.664-1.649,0.746
				c-0.603,0.081-1.296-0.168-1.533-0.729C610.228,370.896,611.053,369.84,610.6,369.034z"/>
			<path style="fill:#594287;" d="M636.696,386.078c0.233,0.065,0.439,0.203,0.63,0.353c0.322,0.252,0.618,0.543,0.982,0.729
				c0.364,0.186,0.826,0.248,1.17,0.029c0.427-0.272,0.639-0.93,1.145-0.931c0.165,0,0.323,0.08,0.442,0.193
				c0.331,0.317,0.357,0.83,0.36,1.289c0.005,0.713,0.01,1.425,0.015,2.138c0.002,0.29,0,0.596-0.149,0.845
				c-0.161,0.269-0.461,0.416-0.727,0.584c-0.84,0.53-1.457,1.403-1.675,2.372l-0.486,0.158c-0.161-0.283-0.506-0.391-0.81-0.51
				c-1.485-0.582-2.595-2.026-2.778-3.61c-0.023-0.198-0.03-0.409,0.065-0.584c0.196-0.364,0.782-0.505,0.771-0.918
				c-0.005-0.186-0.141-0.337-0.233-0.499c-0.219-0.384-0.181-0.898,0.091-1.247C635.781,386.121,636.271,385.959,636.696,386.078z"
				/>
			<path style="fill:#594287;" d="M621.503,383.406c0.185-0.156,0.416-0.248,0.647-0.321c0.389-0.124,0.797-0.204,1.156-0.4
				c0.358-0.196,0.67-0.542,0.684-0.95c0.017-0.506-0.407-1.052-0.122-1.47c0.093-0.136,0.248-0.221,0.409-0.255
				c0.449-0.095,0.886,0.174,1.267,0.43c0.591,0.398,1.182,0.796,1.773,1.193c0.24,0.162,0.492,0.337,0.614,0.6
				c0.131,0.285,0.083,0.615,0.072,0.929c-0.037,0.993,0.336,1.994,1.013,2.721l-0.144,0.491c-0.325-0.027-0.609,0.197-0.878,0.381
				c-1.319,0.897-3.137,1-4.548,0.256c-0.176-0.093-0.354-0.206-0.445-0.383c-0.19-0.367,0.024-0.931-0.323-1.155
				c-0.156-0.101-0.358-0.074-0.544-0.089c-0.44-0.036-0.844-0.357-0.978-0.778C621.022,384.185,621.165,383.69,621.503,383.406z"/>
			<path style="fill:#594287;" d="M666.543,383.63c-0.122,0.21-0.307,0.374-0.499,0.521c-0.324,0.248-0.681,0.462-0.951,0.768
				c-0.271,0.306-0.447,0.737-0.321,1.126c0.156,0.482,0.74,0.851,0.614,1.342c-0.041,0.16-0.158,0.293-0.298,0.379
				c-0.39,0.242-0.893,0.138-1.338,0.026c-0.691-0.174-1.382-0.347-2.073-0.521c-0.281-0.071-0.578-0.15-0.781-0.356
				c-0.22-0.224-0.287-0.551-0.383-0.85c-0.302-0.946-0.993-1.762-1.877-2.216l-0.031-0.51c0.315-0.085,0.505-0.392,0.697-0.656
				c0.936-1.292,2.611-2.005,4.191-1.785c0.197,0.027,0.403,0.074,0.549,0.209c0.303,0.281,0.293,0.884,0.696,0.977
				c0.181,0.042,0.362-0.052,0.542-0.101c0.427-0.116,0.915,0.049,1.184,0.4C666.731,382.734,666.765,383.248,666.543,383.63z"/>
			<g>
				<path style="fill:#8B383E;" d="M625.928,419.702c-1.218-4.911-3.642-11.946-8.275-17.58c-1.489-1.811-3.251-3.266-5.117-4.806
					c-2.154-1.779-4.382-3.619-6.149-6.052c-1.469-2.022-2.397-4.155-3.294-6.219c-0.445-1.024-0.906-2.085-1.427-3.113
					c-0.874-1.725-2.506-3.378-4.086-4.975c-0.474-0.48-0.936-0.949-1.363-1.403l1.607-1.508c0.414,0.442,0.863,0.896,1.323,1.362
					c1.619,1.639,3.455,3.496,4.484,5.529c0.55,1.085,1.024,2.175,1.482,3.229c0.889,2.045,1.729,3.976,3.056,5.802
					c1.603,2.207,3.627,3.879,5.769,5.649c1.864,1.539,3.791,3.131,5.415,5.106c4.895,5.952,7.439,13.318,8.711,18.449
					L625.928,419.702z"/>
			</g>
			<g>
				<path style="fill:#8B383E;" d="M636.91,416.165c2.949-7.187,0.315-15.229-2.65-22.147l-0.487-1.131
					c-2.728-6.333-5.548-12.882-4.396-19.396c0.118-0.668,0.277-1.332,0.436-1.995c0.355-1.487,0.722-3.024,0.67-4.645
					c-0.075-2.314-1.004-4.456-1.824-6.346l-6.971-16.067l-2.022,0.878l6.971,16.067c0.778,1.793,1.582,3.647,1.643,5.541
					c0.043,1.325-0.274,2.654-0.611,4.061c-0.168,0.706-0.337,1.413-0.463,2.124c-1.266,7.164,1.687,14.02,4.542,20.651l0.485,1.128
					c2.785,6.498,5.276,14.009,2.636,20.443L636.91,416.165z"/>
			</g>
			<g>
				<path style="fill:#8B383E;" d="M627.983,415.924l1.83,1.228c1.744-2.599,3.221-5.387,4.391-8.29
					c0.291-0.722,0.575-1.499,0.593-2.366c0.014-0.704-0.155-1.352-0.303-1.925c-0.053-0.204-0.107-0.409-0.15-0.615
					c-0.34-1.604-0.025-3.313,0.863-4.69c0.646-1.001,1.578-1.829,2.565-2.704c1.192-1.059,2.425-2.153,3.24-3.651
					c0.86-1.583,1.101-3.363,1.313-4.933l2.461-18.185l-2.184-0.295l-2.461,18.185c-0.196,1.45-0.398,2.948-1.066,4.176
					c-0.63,1.159-1.667,2.08-2.766,3.055c-1.054,0.936-2.143,1.903-2.954,3.158c-1.2,1.862-1.626,4.173-1.166,6.341
					c0.05,0.239,0.112,0.476,0.174,0.713c0.123,0.477,0.241,0.927,0.233,1.327c-0.01,0.494-0.211,1.033-0.434,1.586
					C631.047,410.8,629.642,413.453,627.983,415.924z"/>
			</g>
			<g>
				<path style="fill:#8B383E;" d="M640.556,415.963c2.846-4.985,5.789-10.14,7.187-15.912c0.1-0.412,0.194-0.831,0.289-1.253
					c0.545-2.42,1.108-4.921,2.843-6.308c0.475-0.38,1.045-0.68,1.649-0.997c0.211-0.111,0.422-0.222,0.63-0.336
					c4.302-2.371,7.537-6.438,8.878-11.163c0.333-1.171,0.545-2.364,0.751-3.518c0.207-1.156,0.401-2.246,0.706-3.316
					c0.476-1.669,1.446-3.874,3.367-4.891l-1.032-1.948c-2.607,1.382-3.861,4.153-4.455,6.235c-0.335,1.177-0.548,2.373-0.755,3.532
					c-0.205,1.151-0.399,2.237-0.702,3.303c-1.181,4.161-4.032,7.745-7.821,9.834c-0.195,0.107-0.393,0.211-0.591,0.315
					c-0.669,0.352-1.362,0.716-2.001,1.226c-2.339,1.869-3.017,4.885-3.617,7.546c-0.092,0.41-0.184,0.818-0.281,1.219
					c-1.324,5.468-4.188,10.486-6.959,15.338L640.556,415.963z"/>
			</g>
			<g>
				<path style="fill:#8B383E;" d="M626.216,416.688c6.724-11.863,7.767-24.84,2.79-34.713c-2.251-4.466-5.646-8.189-8.929-11.791
					c-0.829-0.909-1.658-1.818-2.468-2.738c-3.448-3.917-7.497-9.188-8.202-15.235l-2.188,0.255
					c0.774,6.653,5.076,12.278,8.736,16.435c0.818,0.929,1.655,1.848,2.493,2.768c3.183,3.491,6.474,7.102,8.589,11.298
					c4.645,9.213,3.62,21.412-2.74,32.634L626.216,416.688z"/>
			</g>
			<g>
				<path style="fill:#8B383E;" d="M646.984,420.379c2.254-9.28,4.809-19.798,3.453-30.061c-0.139-1.053-0.318-2.102-0.498-3.149
					c-0.322-1.879-0.626-3.653-0.708-5.468c-0.291-6.513,2.279-12.52,4.999-18.88c2.15-5.027,4.372-10.223,5.069-15.721
					l-2.187-0.276c-0.657,5.19-2.818,10.244-4.908,15.131c-2.698,6.307-5.487,12.83-5.174,19.845
					c0.087,1.954,0.418,3.88,0.737,5.743c0.175,1.02,0.35,2.04,0.486,3.064c1.301,9.855-1.202,20.161-3.41,29.253L646.984,420.379z"
					/>
			</g>
			
				<rect x="609.747" y="412.854" transform="matrix(-1 -1.224647e-16 1.224647e-16 -1 1265.9297 880.1297)" style="fill:#FFCF7B;" width="46.435" height="54.423"/>
			<path style="fill:#8376C1;" d="M655.378,341.167c0,0,2.984-5.902,6.435-0.484c3.451,5.419-4.291,9.911-4.291,9.911
				s-6.427-6.276-5.188-8.778C653.574,339.316,655.378,341.167,655.378,341.167z"/>
			<path style="fill:#8376C1;" d="M616.159,344.788c0.426-0.524,0.339-1.277,0.321-1.951c-0.013-0.491,0.024-0.982,0.108-1.466
				c0.056-0.318,0.148-0.659,0.406-0.853c0.37-0.279,0.905-0.134,1.306,0.098c0.401,0.233,0.78,0.549,1.241,0.598
				c0.405,0.043,0.828-0.149,1.061-0.484c0.135-0.194,0.208-0.427,0.356-0.611c0.447-0.557,1.396-0.405,1.884,0.116
				c0.489,0.521,0.639,1.264,0.768,1.966c0.288,1.555,0.573,3.179,0.126,4.696c-0.3,1.02-0.912,1.919-1.315,2.903l-0.2-0.41
				c-0.834-0.02-1.668-0.04-2.502-0.06c-0.315-0.008-0.636-0.016-0.934-0.119c-0.546-0.189-0.934-0.66-1.364-1.045
				c-0.472-0.422-1.027-0.762-1.412-1.264c-0.385-0.503-0.556-1.253-0.174-1.758C615.932,345.015,616.058,344.912,616.159,344.788z"
				/>
			<path style="fill:#8376C1;" d="M648.717,375.359c0.435-0.056,0.731-0.449,1.025-0.774c0.214-0.236,0.451-0.451,0.707-0.641
				c0.169-0.125,0.365-0.243,0.573-0.219c0.299,0.034,0.486,0.342,0.57,0.631c0.084,0.289,0.121,0.608,0.316,0.837
				c0.171,0.202,0.456,0.301,0.716,0.247c0.15-0.031,0.289-0.107,0.441-0.128c0.459-0.062,0.838,0.435,0.834,0.898
				c-0.003,0.464-0.266,0.88-0.519,1.269c-0.561,0.86-1.155,1.751-2.044,2.265c-0.598,0.345-1.288,0.494-1.919,0.776l0.09-0.282
				c-0.383-0.383-0.766-0.766-1.15-1.149c-0.145-0.145-0.292-0.293-0.386-0.474c-0.172-0.333-0.143-0.729-0.173-1.102
				c-0.033-0.41-0.142-0.818-0.098-1.227c0.044-0.409,0.3-0.838,0.705-0.905C648.509,375.364,648.614,375.372,648.717,375.359z"/>
			<path style="fill:#8376C1;" d="M626.569,399.717c0.394-0.192,0.55-0.658,0.724-1.06c0.127-0.292,0.283-0.572,0.466-0.833
				c0.12-0.172,0.268-0.347,0.473-0.391c0.294-0.063,0.57,0.169,0.742,0.416c0.172,0.247,0.309,0.537,0.566,0.693
				c0.227,0.137,0.528,0.139,0.757,0.006c0.133-0.077,0.24-0.194,0.377-0.262c0.416-0.205,0.933,0.145,1.077,0.585
				c0.145,0.44,0.029,0.919-0.087,1.368c-0.257,0.994-0.535,2.028-1.213,2.799c-0.456,0.518-1.063,0.879-1.57,1.348l-0.005-0.296
				c-0.485-0.241-0.971-0.481-1.456-0.721c-0.184-0.091-0.37-0.184-0.517-0.326c-0.27-0.261-0.369-0.645-0.517-0.989
				c-0.162-0.378-0.396-0.73-0.484-1.131c-0.089-0.401,0.016-0.89,0.38-1.083C626.373,399.789,626.475,399.763,626.569,399.717z"/>
			<path style="fill:#8376C1;" d="M619.506,369.491c0.394-0.192,0.55-0.659,0.724-1.061c0.127-0.292,0.283-0.572,0.466-0.833
				c0.12-0.172,0.268-0.347,0.473-0.391c0.294-0.063,0.57,0.169,0.742,0.416c0.172,0.247,0.309,0.537,0.567,0.692
				c0.227,0.137,0.528,0.139,0.757,0.006c0.132-0.077,0.24-0.194,0.377-0.262c0.416-0.205,0.933,0.145,1.077,0.585
				c0.145,0.44,0.029,0.919-0.087,1.368c-0.257,0.994-0.535,2.028-1.214,2.799c-0.456,0.518-1.063,0.879-1.57,1.348l-0.005-0.296
				c-0.485-0.24-0.971-0.481-1.456-0.722c-0.183-0.091-0.37-0.184-0.517-0.326c-0.269-0.261-0.368-0.645-0.516-0.989
				c-0.162-0.378-0.396-0.73-0.484-1.131c-0.089-0.401,0.016-0.89,0.379-1.083C619.311,369.563,619.413,369.536,619.506,369.491z"/>
			<path style="fill:#8376C1;" d="M626.702,359.631c0.394-0.192,0.549-0.659,0.724-1.06c0.127-0.292,0.283-0.572,0.466-0.833
				c0.12-0.172,0.268-0.347,0.473-0.391c0.294-0.063,0.57,0.169,0.742,0.416c0.172,0.247,0.309,0.537,0.567,0.692
				c0.227,0.137,0.528,0.139,0.757,0.006c0.132-0.077,0.24-0.194,0.377-0.262c0.416-0.205,0.933,0.145,1.077,0.585
				c0.145,0.44,0.029,0.919-0.087,1.368c-0.257,0.994-0.535,2.028-1.213,2.799c-0.456,0.518-1.063,0.879-1.57,1.348l-0.005-0.296
				c-0.485-0.241-0.971-0.481-1.456-0.722c-0.184-0.091-0.37-0.184-0.517-0.326c-0.27-0.261-0.368-0.645-0.516-0.989
				c-0.162-0.378-0.396-0.73-0.484-1.131c-0.089-0.401,0.016-0.89,0.38-1.083C626.506,359.703,626.608,359.677,626.702,359.631z"/>
			<path style="fill:#8376C1;" d="M667.457,364.305c0.342-0.067,0.717-0.102,0.976-0.335c0.31-0.278,0.352-0.742,0.538-1.114
				c0.303-0.603,0.99-0.937,1.662-0.998c0.672-0.061,1.342,0.106,1.996,0.271c0.133,0.034,0.276,0.074,0.357,0.184
				c0.083,0.112,0.077,0.264,0.06,0.401c-0.102,0.811-0.519,1.578-1.143,2.106c-0.128,0.108-0.272,0.216-0.326,0.376
				c-0.113,0.335,0.234,0.651,0.569,0.763c0.432,0.145,0.905,0.136,1.338,0.279c0.433,0.143,0.853,0.525,0.796,0.978
				c-0.063,0.503-0.651,0.754-1.156,0.791c-0.506,0.036-1.052-0.033-1.485,0.229c-0.092,0.055-0.177,0.127-0.225,0.223
				c-0.17,0.339,0.194,0.682,0.38,1.013c0.319,0.569,0.067,1.342-0.454,1.735c-0.521,0.393-1.233,0.456-1.87,0.318
				c-0.638-0.138-1.22-0.455-1.793-0.768c-1.073-0.587-2.145-1.173-3.218-1.76l-0.328,0.213
				C663.726,367.055,665.306,364.725,667.457,364.305z"/>
			<path style="fill:#8376C1;" d="M610.214,367.713c-0.297-0.091-0.606-0.221-0.909-0.147c-0.361,0.088-0.589,0.436-0.893,0.65
				c-0.492,0.347-1.172,0.321-1.727,0.086c-0.555-0.235-1.011-0.647-1.456-1.053c-0.09-0.082-0.186-0.174-0.204-0.295
				c-0.018-0.123,0.05-0.24,0.122-0.341c0.422-0.595,1.072-1.023,1.785-1.176c0.146-0.031,0.305-0.056,0.414-0.158
				c0.23-0.216,0.09-0.61-0.126-0.839c-0.279-0.296-0.654-0.488-0.935-0.782c-0.281-0.294-0.449-0.772-0.215-1.104
				c0.261-0.369,0.829-0.32,1.242-0.136s0.813,0.468,1.265,0.445c0.095-0.005,0.193-0.025,0.271-0.081
				c0.276-0.196,0.134-0.619,0.128-0.957c-0.012-0.582,0.512-1.083,1.087-1.174c0.575-0.091,1.162,0.16,1.605,0.537
				c0.443,0.377,0.768,0.871,1.087,1.358c0.597,0.913,1.194,1.825,1.791,2.738l0.347-0.03
				C614.306,367.119,612.083,368.288,610.214,367.713z"/>
			<path style="fill:#8376C1;" d="M645.101,404.695c0.324-0.063,0.678-0.096,0.923-0.316c0.293-0.263,0.333-0.702,0.509-1.054
				c0.286-0.571,0.936-0.886,1.572-0.944c0.636-0.058,1.269,0.1,1.888,0.256c0.125,0.032,0.261,0.07,0.338,0.174
				c0.078,0.106,0.073,0.25,0.057,0.38c-0.097,0.767-0.491,1.493-1.081,1.992c-0.121,0.103-0.257,0.205-0.308,0.355
				c-0.107,0.317,0.221,0.616,0.538,0.722c0.409,0.137,0.856,0.129,1.265,0.264c0.41,0.135,0.806,0.497,0.753,0.925
				c-0.06,0.476-0.615,0.714-1.093,0.748c-0.478,0.034-0.995-0.031-1.405,0.217c-0.087,0.052-0.168,0.12-0.213,0.211
				c-0.16,0.321,0.184,0.645,0.359,0.959c0.302,0.538,0.063,1.269-0.429,1.641c-0.492,0.372-1.166,0.432-1.769,0.301
				c-0.603-0.131-1.154-0.431-1.696-0.727c-1.015-0.555-2.029-1.11-3.044-1.665l-0.31,0.201
				C641.571,407.297,643.066,405.093,645.101,404.695z"/>
			<path style="fill:#8376C1;" d="M596.764,370.098c-0.479-0.546-0.188-1.544-0.759-1.992c-0.25-0.196-0.595-0.216-0.911-0.184
				c-0.816,0.083-1.679,0.572-1.834,1.377c-0.166,0.863,0.506,1.858-0.003,2.575c-0.199,0.28-0.531,0.426-0.821,0.612
				c-0.642,0.412-1.131,1.122-1.117,1.885c0.014,0.763,0.635,1.515,1.398,1.528c0.196,0.003,0.4-0.037,0.584,0.031
				c0.708,0.264,0.229,1.592,0.888,1.963c0.283,0.16,0.636,0.046,0.94-0.071c1.137-0.437,2.272-0.881,3.404-1.331l-0.204,0.063
				c0.436-0.22,0.618-0.737,0.745-1.209c0.231-0.856,0.414-1.726,0.547-2.603c0.104-0.686,0.124-1.512-0.429-1.93
				C598.503,370.292,597.333,370.747,596.764,370.098z"/>
			<path style="fill:#8376C1;" d="M630.059,382.026c0.313-0.655-0.237-1.537,0.192-2.123c0.188-0.257,0.514-0.369,0.827-0.424
				c0.808-0.141,1.771,0.096,2.138,0.829c0.393,0.786,0.015,1.926,0.699,2.478c0.268,0.216,0.627,0.267,0.956,0.367
				c0.73,0.223,1.392,0.774,1.586,1.512c0.193,0.738-0.201,1.63-0.932,1.849c-0.188,0.056-0.396,0.072-0.554,0.188
				c-0.61,0.446,0.21,1.595-0.324,2.13c-0.229,0.23-0.6,0.216-0.923,0.186c-1.213-0.113-2.426-0.233-3.637-0.36l0.213,0.005
				c-0.479-0.094-0.794-0.542-1.044-0.962c-0.454-0.762-0.865-1.549-1.231-2.358c-0.286-0.632-0.529-1.422-0.109-1.974
				C628.438,382.684,629.687,382.805,630.059,382.026z"/>
			<path style="fill:#8376C1;" d="M605.075,350.302c0.304-0.63-0.128-1.413,0.11-2.071c0.176-0.484,0.705-0.786,1.22-0.779
				c0.515,0.007,1,0.282,1.35,0.659c0.371,0.401,0.685,0.96,1.227,1.02c0.279,0.031,0.549-0.086,0.812-0.185
				c0.652-0.247,1.339-0.4,2.034-0.454c0.176-0.014,0.365-0.018,0.514,0.077c0.192,0.122,0.257,0.366,0.308,0.587
				c0.248,1.089,0.491,2.263,0.059,3.293c-0.235,0.561-0.651,1.024-1.06,1.475c-0.468,0.517-0.936,1.033-1.404,1.55
				c-0.311,0.343-0.636,0.697-1.061,0.881l0.762,0.31c-0.523,0.399-1.353,0.311-1.779-0.19c-0.124-0.146-0.215-0.318-0.336-0.467
				c-0.303-0.373-0.766-0.571-1.21-0.756c-0.65-0.27-1.3-0.539-1.949-0.809c-0.562-0.233-1.143-0.479-1.554-0.927
				c-0.411-0.448-0.603-1.16-0.278-1.674C603.334,351.061,604.673,351.134,605.075,350.302z"/>
			<path style="fill:#8376C1;" d="M610.106,386.587c-0.39-0.535-0.248-1.397-0.594-1.974c-0.254-0.425-0.738-0.588-1.134-0.456
				c-0.396,0.132-0.703,0.515-0.881,0.965c-0.188,0.477-0.293,1.094-0.698,1.284c-0.208,0.098-0.445,0.051-0.672,0.019
				c-0.564-0.08-1.133-0.061-1.683,0.057c-0.139,0.03-0.286,0.072-0.378,0.2c-0.118,0.164-0.109,0.416-0.094,0.642
				c0.075,1.112,0.176,2.306,0.763,3.196c0.32,0.485,0.754,0.831,1.18,1.167c0.488,0.385,0.976,0.771,1.465,1.157
				c0.325,0.256,0.662,0.519,1.036,0.594l-0.512,0.485c0.502,0.259,1.121-0.029,1.327-0.617c0.06-0.171,0.088-0.359,0.145-0.533
				c0.142-0.435,0.451-0.738,0.749-1.025c0.436-0.418,0.872-0.837,1.308-1.255c0.377-0.362,0.765-0.741,0.973-1.274
				c0.208-0.533,0.181-1.267-0.196-1.685C611.637,386.898,610.621,387.294,610.106,386.587z"/>
			<path style="fill:#8376C1;" d="M639.354,390.518c0.642-0.16,1.087-0.912,1.723-1.132c0.468-0.163,0.943,0.023,1.162,0.378
				c0.219,0.355,0.208,0.847,0.056,1.305c-0.162,0.487-0.478,1.027-0.29,1.433c0.097,0.208,0.309,0.325,0.503,0.446
				c0.484,0.301,0.907,0.681,1.254,1.124c0.088,0.112,0.174,0.239,0.162,0.396c-0.015,0.202-0.183,0.389-0.34,0.552
				c-0.772,0.805-1.616,1.655-2.637,1.96c-0.556,0.167-1.112,0.153-1.655,0.137c-0.622-0.018-1.244-0.036-1.866-0.054
				c-0.413-0.012-0.841-0.027-1.175-0.21l0.081,0.701c-0.551-0.124-0.841-0.742-0.622-1.325c0.064-0.17,0.163-0.332,0.231-0.501
				c0.17-0.424,0.128-0.856,0.083-1.267c-0.065-0.601-0.131-1.201-0.196-1.802c-0.057-0.52-0.111-1.059,0.072-1.601
				c0.183-0.542,0.675-1.088,1.233-1.166C637.981,389.773,638.505,390.73,639.354,390.518z"/>
			<path style="fill:#8376C1;" d="M641.135,365.371c0.233,0.065,0.439,0.203,0.63,0.353c0.322,0.252,0.618,0.543,0.982,0.729
				c0.364,0.186,0.826,0.248,1.17,0.029c0.427-0.272,0.639-0.93,1.145-0.931c0.165,0,0.323,0.08,0.442,0.194
				c0.331,0.318,0.357,0.83,0.36,1.289c0.005,0.713,0.01,1.425,0.015,2.138c0.002,0.29,0,0.596-0.149,0.845
				c-0.161,0.269-0.461,0.416-0.727,0.584c-0.84,0.53-1.457,1.403-1.675,2.372l-0.487,0.158c-0.161-0.283-0.506-0.391-0.809-0.51
				c-1.485-0.582-2.595-2.025-2.778-3.61c-0.023-0.197-0.03-0.408,0.065-0.583c0.196-0.363,0.782-0.505,0.772-0.918
				c-0.005-0.186-0.141-0.337-0.233-0.499c-0.219-0.384-0.181-0.898,0.091-1.246C640.22,365.414,640.71,365.253,641.135,365.371z"/>
			<path style="fill:#8376C1;" d="M607.015,378.659c0.11,0.215,0.148,0.461,0.168,0.702c0.033,0.407,0.02,0.823,0.13,1.216
				c0.11,0.393,0.378,0.775,0.772,0.879c0.489,0.13,1.116-0.161,1.461,0.21c0.112,0.121,0.16,0.291,0.157,0.456
				c-0.009,0.459-0.368,0.825-0.703,1.139c-0.52,0.487-1.04,0.974-1.561,1.461c-0.212,0.198-0.438,0.404-0.722,0.464
				c-0.307,0.064-0.619-0.056-0.922-0.138c-0.959-0.258-2.019-0.119-2.879,0.378l-0.446-0.25c0.099-0.311-0.056-0.637-0.174-0.941
				c-0.579-1.486-0.272-3.281,0.769-4.49c0.13-0.151,0.28-0.299,0.473-0.348c0.4-0.103,0.902,0.232,1.198-0.056
				c0.133-0.13,0.152-0.333,0.208-0.51c0.134-0.421,0.537-0.742,0.977-0.779C606.363,378.015,606.814,378.266,607.015,378.659z"/>
			
				<rect x="609.35" y="412.854" transform="matrix(-1 -1.224647e-16 1.224647e-16 -1 1265.9297 832.3304)" style="fill:#D1A454;" width="47.229" height="6.623"/>
		</g>
		<g>
			<path style="fill:#594287;" d="M105.284,353.475c0,0-2.679-6.047-6.402-0.811c-3.723,5.236,3.78,10.117,3.78,10.117
				s6.739-5.94,5.629-8.501C107.18,351.718,105.284,353.475,105.284,353.475z"/>
			<path style="fill:#594287;" d="M130.946,405.792c0,0,6.437-1.518,1.978-6.142c-4.46-4.625-10.641,1.85-10.641,1.85
				s4.595,7.719,7.318,7.1C132.323,407.98,130.946,405.792,130.946,405.792z"/>
			<path style="fill:#594287;" d="M121.898,367.312c-0.296-0.607-0.041-1.32,0.129-1.974c0.123-0.475,0.199-0.962,0.227-1.452
				c0.018-0.323,0.005-0.675-0.202-0.923c-0.297-0.356-0.851-0.336-1.295-0.2c-0.443,0.135-0.884,0.358-1.345,0.301
				c-0.405-0.05-0.772-0.333-0.924-0.712c-0.087-0.219-0.106-0.463-0.208-0.675c-0.309-0.644-1.268-0.71-1.862-0.314
				c-0.594,0.396-0.908,1.086-1.194,1.741c-0.632,1.449-1.278,2.967-1.187,4.546c0.061,1.062,0.454,2.075,0.624,3.125l0.287-0.355
				c0.817,0.17,1.634,0.339,2.451,0.508c0.309,0.064,0.624,0.128,0.937,0.096c0.574-0.06,1.059-0.431,1.565-0.709
				c0.555-0.304,1.173-0.509,1.662-0.911c0.489-0.402,0.826-1.094,0.568-1.673C122.067,367.585,121.969,367.456,121.898,367.312z"/>
			<path style="fill:#594287;" d="M99.349,369.628c0.065-0.343,0.098-0.717,0.33-0.978c0.277-0.311,0.74-0.355,1.112-0.544
				c0.602-0.306,0.932-0.994,0.99-1.667c0.058-0.673-0.112-1.341-0.281-1.995c-0.034-0.132-0.076-0.276-0.186-0.356
				c-0.112-0.082-0.264-0.076-0.402-0.058c-0.811,0.106-1.576,0.526-2.1,1.153c-0.108,0.129-0.215,0.273-0.374,0.327
				c-0.334,0.115-0.652-0.23-0.766-0.565c-0.147-0.432-0.141-0.904-0.285-1.336c-0.145-0.432-0.53-0.85-0.982-0.791
				c-0.503,0.065-0.751,0.654-0.785,1.16c-0.034,0.506,0.038,1.051-0.222,1.486c-0.055,0.092-0.126,0.178-0.222,0.226
				c-0.339,0.171-0.683-0.191-1.015-0.375c-0.571-0.316-1.342-0.06-1.733,0.462c-0.391,0.522-0.45,1.235-0.309,1.872
				c0.141,0.637,0.461,1.218,0.777,1.789c0.592,1.07,1.184,2.14,1.776,3.21l-0.212,0.329
				C96.617,373.373,98.939,371.781,99.349,369.628z"/>
			<path style="fill:#594287;" d="M85.535,381.085c-0.596-0.415-0.553-1.454-1.215-1.751c-0.29-0.13-0.629-0.067-0.929,0.04
				c-0.772,0.276-1.493,0.958-1.45,1.777c0.046,0.878,0.938,1.682,0.616,2.5c-0.126,0.32-0.414,0.542-0.65,0.791
				c-0.525,0.554-0.829,1.361-0.632,2.098c0.197,0.737,0.98,1.318,1.724,1.147c0.191-0.044,0.38-0.132,0.575-0.11
				c0.751,0.087,0.605,1.49,1.333,1.692c0.313,0.087,0.628-0.108,0.895-0.294c0.999-0.697,1.994-1.401,2.985-2.109l-0.183,0.11
				c0.37-0.318,0.423-0.864,0.433-1.352c0.019-0.887-0.013-1.775-0.094-2.658c-0.063-0.691-0.242-1.497-0.88-1.77
				C87.27,380.855,86.244,381.578,85.535,381.085z"/>
			<path style="fill:#594287;" d="M108.972,389.222c-0.461-0.561-0.139-1.549-0.696-2.015c-0.244-0.204-0.588-0.235-0.905-0.213
				c-0.818,0.057-1.696,0.519-1.876,1.319c-0.193,0.857,0.447,1.873-0.084,2.573c-0.208,0.274-0.545,0.409-0.84,0.586
				c-0.655,0.392-1.166,1.086-1.176,1.849c-0.01,0.763,0.587,1.534,1.349,1.571c0.196,0.009,0.401-0.025,0.583,0.05
				c0.7,0.287,0.179,1.598,0.825,1.99c0.278,0.168,0.634,0.066,0.941-0.041c1.15-0.401,2.298-0.809,3.444-1.223l-0.206,0.056
				c0.443-0.206,0.641-0.717,0.783-1.185c0.258-0.849,0.468-1.712,0.629-2.584c0.126-0.682,0.172-1.507-0.368-1.942
				C110.704,389.471,109.52,389.888,108.972,389.222z"/>
			<path style="fill:#594287;" d="M133.206,369.034c0.343-0.61,1.233-0.702,1.636-1.274c0.297-0.421,0.242-1.028-0.058-1.447
				c-0.3-0.418-0.803-0.66-1.312-0.731c-0.541-0.076-1.179-0.013-1.538-0.424c-0.184-0.211-0.244-0.5-0.312-0.772
				c-0.17-0.676-0.437-1.328-0.791-1.929c-0.089-0.152-0.194-0.31-0.357-0.378c-0.209-0.088-0.447-0.002-0.658,0.083
				c-1.035,0.418-2.138,0.89-2.736,1.833c-0.326,0.514-0.468,1.119-0.605,1.712c-0.157,0.679-0.313,1.358-0.47,2.038
				c-0.104,0.452-0.209,0.92-0.117,1.374l-0.69-0.448c-0.029,0.657,0.518,1.287,1.173,1.351c0.191,0.019,0.384-0.005,0.575,0.009
				c0.479,0.035,0.907,0.302,1.312,0.561c0.592,0.379,1.185,0.758,1.777,1.138c0.512,0.328,1.046,0.664,1.649,0.746
				c0.603,0.081,1.296-0.168,1.533-0.729C133.577,370.896,132.752,369.84,133.206,369.034z"/>
			<path style="fill:#594287;" d="M132.776,390.732c-0.185-0.156-0.416-0.248-0.647-0.321c-0.389-0.124-0.797-0.204-1.156-0.4
				c-0.359-0.196-0.671-0.542-0.684-0.95c-0.017-0.506,0.407-1.052,0.122-1.47c-0.093-0.136-0.248-0.221-0.409-0.255
				c-0.449-0.095-0.886,0.174-1.267,0.43c-0.591,0.398-1.182,0.796-1.773,1.194c-0.241,0.162-0.492,0.337-0.614,0.6
				c-0.131,0.285-0.083,0.616-0.072,0.929c0.037,0.993-0.336,1.994-1.013,2.721l0.144,0.491c0.325-0.027,0.609,0.197,0.878,0.381
				c1.319,0.897,3.137,1,4.548,0.256c0.176-0.093,0.354-0.206,0.445-0.383c0.19-0.367-0.024-0.931,0.323-1.155
				c0.156-0.101,0.358-0.074,0.544-0.089c0.44-0.036,0.844-0.357,0.978-0.778C133.258,391.512,133.114,391.016,132.776,390.732z"/>
			<path style="fill:#594287;" d="M122.302,383.406c-0.185-0.156-0.416-0.248-0.646-0.321c-0.389-0.124-0.797-0.204-1.156-0.4
				c-0.359-0.196-0.67-0.542-0.684-0.95c-0.017-0.506,0.407-1.052,0.122-1.47c-0.093-0.136-0.248-0.221-0.409-0.255
				c-0.449-0.095-0.886,0.174-1.267,0.43c-0.591,0.398-1.182,0.796-1.773,1.193c-0.241,0.162-0.492,0.337-0.614,0.6
				c-0.131,0.285-0.084,0.615-0.072,0.929c0.037,0.993-0.336,1.994-1.013,2.721l0.144,0.491c0.325-0.027,0.609,0.197,0.878,0.381
				c1.319,0.897,3.137,1,4.548,0.256c0.176-0.093,0.354-0.206,0.445-0.383c0.19-0.367-0.024-0.931,0.323-1.155
				c0.156-0.101,0.358-0.074,0.544-0.089c0.44-0.036,0.844-0.357,0.978-0.778C122.784,384.185,122.641,383.69,122.302,383.406z"/>
			<path style="fill:#594287;" d="M88.881,377.864c0.049,0.237,0.173,0.452,0.309,0.652c0.229,0.338,0.5,0.654,0.661,1.029
				c0.161,0.376,0.192,0.84-0.05,1.169c-0.3,0.408-0.971,0.575-1.006,1.079c-0.011,0.164,0.058,0.327,0.163,0.454
				c0.294,0.352,0.804,0.412,1.262,0.446c0.71,0.053,1.421,0.107,2.132,0.16c0.289,0.022,0.595,0.04,0.853-0.092
				c0.28-0.143,0.446-0.432,0.631-0.685c0.585-0.803,1.498-1.359,2.479-1.511l0.191-0.474c-0.272-0.18-0.356-0.531-0.454-0.842
				c-0.481-1.521-1.846-2.726-3.414-3.015c-0.196-0.036-0.406-0.057-0.587,0.025c-0.376,0.171-0.557,0.746-0.968,0.708
				c-0.185-0.017-0.327-0.164-0.482-0.266c-0.368-0.244-0.884-0.242-1.25,0.006C88.985,376.954,88.791,377.432,88.881,377.864z"/>
			<g>
				<path style="fill:#8B383E;" d="M110.323,419.702c-1.218-4.911-3.642-11.946-8.274-17.58c-1.489-1.811-3.251-3.266-5.117-4.806
					c-2.154-1.779-4.382-3.619-6.149-6.052c-1.469-2.022-2.397-4.155-3.294-6.219c-0.445-1.024-0.906-2.085-1.427-3.113
					c-0.874-1.725-2.506-3.378-4.086-4.975c-0.474-0.48-0.937-0.949-1.363-1.403l1.607-1.508c0.414,0.442,0.863,0.896,1.324,1.362
					c1.619,1.639,3.455,3.496,4.484,5.529c0.55,1.085,1.024,2.175,1.482,3.229c0.889,2.045,1.729,3.976,3.056,5.802
					c1.604,2.207,3.627,3.879,5.77,5.649c1.864,1.539,3.791,3.131,5.415,5.106c4.895,5.952,7.439,13.318,8.711,18.449
					L110.323,419.702z"/>
			</g>
			<g>
				<path style="fill:#8B383E;" d="M106.896,416.165c-2.948-7.187-0.315-15.229,2.65-22.147l0.487-1.131
					c2.727-6.333,5.548-12.882,4.396-19.396c-0.118-0.668-0.277-1.332-0.436-1.995c-0.355-1.487-0.722-3.024-0.67-4.645
					c0.075-2.314,1.004-4.456,1.824-6.346l6.971-16.067l2.022,0.878l-6.971,16.067c-0.778,1.793-1.582,3.647-1.643,5.541
					c-0.043,1.325,0.274,2.654,0.611,4.061c0.168,0.706,0.337,1.413,0.463,2.124c1.266,7.164-1.687,14.02-4.542,20.651l-0.485,1.128
					c-2.785,6.498-5.276,14.009-2.637,20.443L106.896,416.165z"/>
			</g>
			<g>
				<path style="fill:#8B383E;" d="M113.052,414.767l-2.046-0.818c1.161-2.906,2.631-5.699,4.367-8.303
					c0.432-0.647,0.912-1.321,1.619-1.824c0.573-0.409,1.204-0.635,1.76-0.835c0.199-0.071,0.399-0.143,0.593-0.223
					c1.516-0.625,2.749-1.849,3.385-3.358c0.462-1.098,0.619-2.335,0.786-3.643c0.201-1.582,0.409-3.217,1.186-4.735
					c0.822-1.604,2.155-2.807,3.331-3.868l13.624-12.293l1.476,1.637l-13.624,12.293c-1.086,0.98-2.209,1.993-2.846,3.236
					c-0.601,1.174-0.776,2.55-0.961,4.007c-0.178,1.398-0.361,2.843-0.941,4.221c-0.86,2.042-2.528,3.697-4.577,4.541
					c-0.225,0.094-0.456,0.176-0.687,0.259c-0.463,0.167-0.901,0.324-1.227,0.556c-0.402,0.287-0.733,0.757-1.065,1.253
					C115.554,409.345,114.156,412.003,113.052,414.767z"/>
			</g>
			<g>
				<path style="fill:#8B383E;" d="M103.349,416.741c-1.129-5.628-2.297-11.448-1.803-17.367c0.035-0.422,0.078-0.85,0.121-1.28
					c0.245-2.468,0.5-5.02-0.709-6.882c-0.331-0.51-0.778-0.974-1.251-1.466c-0.165-0.172-0.33-0.343-0.492-0.517
					c-3.335-3.606-5.122-8.486-4.905-13.392c0.054-1.216,0.228-2.415,0.396-3.575c0.168-1.162,0.328-2.258,0.376-3.369
					c0.075-1.734-0.151-4.132-1.653-5.703l1.593-1.523c2.038,2.133,2.355,5.159,2.262,7.322c-0.053,1.222-0.228,2.425-0.397,3.59
					c-0.168,1.157-0.327,2.249-0.376,3.356c-0.191,4.321,1.384,8.621,4.322,11.798c0.151,0.163,0.307,0.324,0.462,0.485
					c0.524,0.545,1.067,1.109,1.512,1.794c1.63,2.511,1.323,5.587,1.053,8.301c-0.042,0.418-0.083,0.835-0.118,1.245
					c-0.467,5.607,0.669,11.272,1.768,16.75L103.349,416.741z"/>
			</g>
			<g>
				<path style="fill:#8B383E;" d="M117.589,416.688c-6.724-11.863-7.767-24.84-2.79-34.713c2.251-4.466,5.646-8.189,8.929-11.791
					c0.829-0.909,1.658-1.818,2.468-2.738c3.448-3.917,7.497-9.188,8.202-15.235l2.189,0.255
					c-0.775,6.653-5.076,12.278-8.736,16.435c-0.818,0.929-1.655,1.848-2.493,2.768c-3.183,3.491-6.474,7.102-8.589,11.298
					c-4.645,9.213-3.62,21.412,2.74,32.634L117.589,416.688z"/>
			</g>
			<g>
				<path style="fill:#8B383E;" d="M105.133,418.679c-1.777-9.383-3.793-20.017-1.915-30.198c0.192-1.045,0.425-2.083,0.658-3.12
					c0.418-1.86,0.812-3.616,0.985-5.425c0.623-6.49-1.637-12.62-4.029-19.11c-1.891-5.13-3.845-10.433-4.261-15.959l2.198-0.164
					c0.392,5.217,2.292,10.374,4.13,15.361c2.372,6.437,4.826,13.093,4.155,20.083c-0.187,1.947-0.615,3.853-1.029,5.698
					c-0.227,1.009-0.454,2.02-0.642,3.035c-1.802,9.776,0.172,20.196,1.914,29.389L105.133,418.679z"/>
			</g>
			<rect x="87.623" y="412.854" style="fill:#FFCF7B;" width="46.436" height="54.423"/>
			<path style="fill:#8376C1;" d="M100.789,339.142c0,0-2.679-6.047-6.402-0.811c-3.723,5.236,3.78,10.117,3.78,10.117
				s6.739-5.94,5.628-8.502C102.686,337.385,100.789,339.142,100.789,339.142z"/>
			<path style="fill:#8376C1;" d="M127.647,344.788c-0.426-0.524-0.339-1.277-0.322-1.951c0.013-0.491-0.024-0.982-0.108-1.466
				c-0.056-0.318-0.148-0.659-0.406-0.853c-0.37-0.279-0.905-0.134-1.306,0.098c-0.401,0.233-0.78,0.549-1.241,0.598
				c-0.405,0.043-0.828-0.149-1.061-0.484c-0.135-0.194-0.208-0.427-0.356-0.611c-0.447-0.557-1.396-0.405-1.884,0.116
				c-0.488,0.521-0.639,1.264-0.769,1.966c-0.288,1.555-0.573,3.179-0.126,4.696c0.3,1.02,0.912,1.919,1.315,2.903l0.2-0.41
				c0.834-0.02,1.668-0.04,2.502-0.06c0.315-0.008,0.636-0.016,0.934-0.119c0.546-0.189,0.934-0.66,1.364-1.045
				c0.472-0.422,1.027-0.762,1.412-1.264c0.385-0.503,0.556-1.253,0.174-1.758C127.873,345.015,127.748,344.912,127.647,344.788z"/>
			<path style="fill:#8376C1;" d="M105.698,373.629c-0.431-0.078-0.707-0.485-0.984-0.825c-0.201-0.247-0.428-0.474-0.674-0.676
				c-0.162-0.133-0.352-0.262-0.561-0.248c-0.3,0.019-0.503,0.317-0.602,0.601c-0.099,0.284-0.152,0.601-0.358,0.82
				c-0.181,0.193-0.471,0.277-0.727,0.211c-0.148-0.038-0.283-0.122-0.434-0.15c-0.456-0.085-0.859,0.392-0.879,0.855
				c-0.02,0.463,0.22,0.893,0.454,1.293c0.517,0.888,1.064,1.808,1.925,2.366c0.58,0.376,1.261,0.559,1.876,0.872l-0.075-0.286
				c0.402-0.363,0.805-0.726,1.207-1.089c0.152-0.137,0.307-0.277,0.41-0.454c0.189-0.324,0.18-0.72,0.23-1.092
				c0.054-0.408,0.183-0.81,0.16-1.22c-0.023-0.41-0.257-0.852-0.658-0.94C105.906,373.645,105.8,373.647,105.698,373.629z"/>
			<path style="fill:#8376C1;" d="M117.236,399.717c-0.394-0.192-0.549-0.658-0.724-1.06c-0.127-0.292-0.283-0.572-0.466-0.833
				c-0.12-0.172-0.268-0.347-0.473-0.391c-0.294-0.063-0.57,0.169-0.742,0.416c-0.172,0.247-0.309,0.537-0.566,0.693
				c-0.227,0.137-0.528,0.139-0.757,0.006c-0.132-0.077-0.24-0.194-0.377-0.262c-0.416-0.205-0.933,0.145-1.077,0.585
				c-0.145,0.44-0.029,0.919,0.087,1.368c0.257,0.994,0.535,2.028,1.213,2.799c0.456,0.518,1.063,0.879,1.57,1.348l0.005-0.296
				c0.485-0.241,0.971-0.481,1.456-0.721c0.184-0.091,0.37-0.184,0.517-0.326c0.27-0.261,0.369-0.645,0.516-0.989
				c0.162-0.378,0.396-0.73,0.485-1.131c0.089-0.401-0.016-0.89-0.38-1.083C117.432,399.789,117.33,399.763,117.236,399.717z"/>
			<path style="fill:#8376C1;" d="M124.299,369.491c-0.394-0.192-0.55-0.659-0.724-1.061c-0.127-0.292-0.283-0.572-0.466-0.833
				c-0.12-0.172-0.268-0.347-0.473-0.391c-0.294-0.063-0.57,0.169-0.742,0.416c-0.172,0.247-0.309,0.537-0.567,0.692
				c-0.227,0.137-0.528,0.139-0.757,0.006c-0.132-0.077-0.24-0.194-0.377-0.262c-0.416-0.205-0.933,0.145-1.077,0.585
				c-0.145,0.44-0.029,0.919,0.087,1.368c0.257,0.994,0.535,2.028,1.214,2.799c0.456,0.518,1.063,0.879,1.57,1.348l0.005-0.296
				c0.486-0.24,0.971-0.481,1.456-0.722c0.183-0.091,0.37-0.184,0.517-0.326c0.27-0.261,0.368-0.645,0.516-0.989
				c0.162-0.378,0.396-0.73,0.485-1.131c0.089-0.401-0.016-0.89-0.38-1.083C124.495,369.563,124.393,369.536,124.299,369.491z"/>
			<path style="fill:#8376C1;" d="M117.103,359.631c-0.394-0.192-0.55-0.659-0.724-1.06c-0.127-0.292-0.283-0.572-0.466-0.833
				c-0.12-0.172-0.268-0.347-0.473-0.391c-0.294-0.063-0.57,0.169-0.742,0.416c-0.172,0.247-0.309,0.537-0.567,0.692
				c-0.227,0.137-0.528,0.139-0.757,0.006c-0.132-0.077-0.24-0.194-0.377-0.262c-0.416-0.205-0.933,0.145-1.077,0.585
				c-0.145,0.44-0.029,0.919,0.087,1.368c0.257,0.994,0.535,2.028,1.213,2.799c0.456,0.518,1.063,0.879,1.57,1.348l0.005-0.296
				c0.485-0.241,0.971-0.481,1.456-0.722c0.183-0.091,0.37-0.184,0.517-0.326c0.27-0.261,0.368-0.645,0.517-0.989
				c0.162-0.378,0.396-0.73,0.484-1.131s-0.016-0.89-0.38-1.083C117.299,359.703,117.197,359.677,117.103,359.631z"/>
			<path style="fill:#8376C1;" d="M94.107,359.236c-0.304-0.171-0.648-0.322-0.821-0.625c-0.206-0.362-0.1-0.815-0.16-1.227
				c-0.097-0.668-0.644-1.201-1.262-1.471c-0.619-0.27-1.307-0.323-1.98-0.372c-0.136-0.01-0.285-0.017-0.397,0.062
				c-0.113,0.08-0.157,0.226-0.183,0.362c-0.159,0.802-0.006,1.661,0.421,2.359c0.088,0.143,0.19,0.291,0.191,0.459
				c0.002,0.353-0.427,0.544-0.78,0.545c-0.456,0.001-0.901-0.156-1.357-0.157c-0.456-0.001-0.975,0.23-1.064,0.677
				c-0.099,0.497,0.379,0.921,0.848,1.115c0.468,0.194,1.008,0.3,1.337,0.685c0.07,0.081,0.128,0.177,0.144,0.283
				c0.054,0.376-0.4,0.586-0.68,0.842c-0.482,0.439-0.486,1.252-0.116,1.79c0.37,0.537,1.026,0.822,1.675,0.891
				c0.649,0.07,1.301-0.047,1.943-0.164c1.203-0.219,2.406-0.437,3.609-0.656l0.244,0.306
				C96.781,363.023,96.016,360.313,94.107,359.236z"/>
			<path style="fill:#8376C1;" d="M133.591,367.713c0.297-0.091,0.606-0.221,0.909-0.147c0.361,0.088,0.589,0.436,0.892,0.65
				c0.492,0.347,1.173,0.321,1.727,0.086c0.555-0.235,1.011-0.647,1.456-1.053c0.09-0.082,0.186-0.174,0.204-0.295
				c0.018-0.123-0.05-0.24-0.122-0.341c-0.422-0.595-1.072-1.023-1.785-1.176c-0.146-0.031-0.305-0.056-0.414-0.158
				c-0.23-0.216-0.09-0.61,0.126-0.839c0.279-0.296,0.654-0.488,0.935-0.782s0.449-0.772,0.215-1.104
				c-0.261-0.369-0.829-0.32-1.242-0.136c-0.413,0.184-0.813,0.468-1.264,0.445c-0.095-0.005-0.193-0.025-0.271-0.081
				c-0.276-0.196-0.134-0.619-0.128-0.957c0.012-0.582-0.512-1.083-1.087-1.174c-0.575-0.091-1.162,0.16-1.605,0.537
				c-0.443,0.377-0.768,0.871-1.087,1.358c-0.597,0.913-1.194,1.825-1.791,2.738l-0.347-0.03
				C129.499,367.119,131.722,368.288,133.591,367.713z"/>
			<path style="fill:#8376C1;" d="M102.588,404.615c-0.287-0.162-0.613-0.305-0.777-0.592c-0.195-0.342-0.094-0.771-0.151-1.161
				c-0.092-0.632-0.609-1.136-1.194-1.392c-0.585-0.255-1.236-0.306-1.873-0.352c-0.129-0.009-0.27-0.016-0.376,0.059
				c-0.107,0.076-0.148,0.214-0.174,0.342c-0.15,0.759-0.005,1.572,0.398,2.231c0.083,0.136,0.18,0.275,0.18,0.434
				c0.002,0.334-0.404,0.514-0.738,0.515c-0.431,0.001-0.852-0.147-1.284-0.148c-0.431-0.001-0.922,0.218-1.006,0.641
				c-0.094,0.47,0.359,0.871,0.802,1.054c0.443,0.183,0.954,0.284,1.265,0.649c0.066,0.077,0.121,0.167,0.136,0.267
				c0.051,0.355-0.378,0.555-0.643,0.796c-0.456,0.416-0.46,1.185-0.11,1.693c0.35,0.508,0.971,0.777,1.584,0.843
				c0.614,0.066,1.231-0.045,1.838-0.155c1.138-0.207,2.276-0.413,3.414-0.62l0.23,0.289
				C105.118,408.197,104.394,405.634,102.588,404.615z"/>
			<path style="fill:#8376C1;" d="M81.159,370.098c-0.479-0.546-0.188-1.544-0.759-1.992c-0.25-0.196-0.595-0.216-0.911-0.184
				c-0.816,0.083-1.679,0.572-1.834,1.377c-0.166,0.863,0.506,1.858-0.002,2.575c-0.199,0.28-0.532,0.426-0.821,0.612
				c-0.642,0.412-1.131,1.122-1.117,1.885c0.014,0.763,0.635,1.515,1.398,1.528c0.196,0.003,0.4-0.037,0.584,0.031
				c0.708,0.264,0.229,1.592,0.888,1.963c0.283,0.16,0.636,0.046,0.94-0.071c1.137-0.437,2.272-0.881,3.404-1.331l-0.204,0.063
				c0.436-0.22,0.618-0.737,0.745-1.209c0.231-0.856,0.414-1.726,0.547-2.603c0.104-0.686,0.125-1.512-0.429-1.93
				C82.898,370.292,81.728,370.747,81.159,370.098z"/>
			<path style="fill:#8376C1;" d="M113.746,382.026c-0.313-0.655,0.237-1.537-0.192-2.123c-0.188-0.257-0.514-0.369-0.827-0.424
				c-0.808-0.141-1.771,0.096-2.138,0.829c-0.393,0.786-0.016,1.926-0.699,2.478c-0.268,0.216-0.627,0.267-0.956,0.367
				c-0.73,0.223-1.392,0.774-1.586,1.512c-0.193,0.738,0.201,1.63,0.932,1.849c0.188,0.056,0.396,0.072,0.554,0.188
				c0.61,0.446-0.21,1.595,0.323,2.13c0.23,0.23,0.6,0.216,0.924,0.186c1.213-0.113,2.425-0.233,3.637-0.36l-0.213,0.005
				c0.479-0.094,0.794-0.542,1.044-0.962c0.454-0.762,0.865-1.549,1.231-2.358c0.286-0.632,0.529-1.422,0.109-1.974
				C115.367,382.684,114.118,382.805,113.746,382.026z"/>
			<path style="fill:#8376C1;" d="M138.73,350.302c-0.304-0.63,0.128-1.413-0.11-2.071c-0.176-0.484-0.705-0.786-1.22-0.779
				c-0.515,0.007-1,0.282-1.35,0.659c-0.371,0.401-0.685,0.96-1.227,1.02c-0.279,0.031-0.549-0.086-0.812-0.185
				c-0.652-0.247-1.339-0.4-2.035-0.454c-0.176-0.014-0.365-0.018-0.514,0.077c-0.192,0.122-0.257,0.366-0.308,0.587
				c-0.249,1.089-0.491,2.263-0.059,3.293c0.236,0.561,0.651,1.024,1.06,1.475c0.468,0.517,0.936,1.033,1.403,1.55
				c0.311,0.343,0.636,0.697,1.061,0.881l-0.762,0.31c0.523,0.399,1.353,0.311,1.779-0.19c0.124-0.146,0.215-0.318,0.336-0.467
				c0.303-0.373,0.766-0.571,1.21-0.756c0.65-0.27,1.3-0.539,1.949-0.809c0.562-0.233,1.143-0.479,1.554-0.927
				c0.411-0.448,0.603-1.16,0.278-1.674C140.471,351.061,139.132,351.134,138.73,350.302z"/>
			<path style="fill:#8376C1;" d="M94.502,386.587c-0.39-0.535-0.248-1.397-0.594-1.974c-0.254-0.425-0.738-0.588-1.134-0.456
				c-0.396,0.132-0.703,0.515-0.881,0.965c-0.188,0.477-0.293,1.094-0.698,1.284c-0.208,0.098-0.445,0.051-0.672,0.019
				c-0.564-0.08-1.133-0.061-1.683,0.057c-0.139,0.03-0.286,0.072-0.378,0.2c-0.118,0.164-0.109,0.416-0.094,0.642
				c0.075,1.112,0.176,2.306,0.763,3.196c0.319,0.485,0.754,0.831,1.18,1.167c0.488,0.385,0.976,0.771,1.465,1.157
				c0.325,0.256,0.662,0.519,1.036,0.594l-0.512,0.485c0.502,0.259,1.121-0.029,1.327-0.617c0.06-0.171,0.088-0.359,0.145-0.533
				c0.142-0.435,0.451-0.738,0.749-1.025c0.436-0.418,0.872-0.837,1.307-1.255c0.377-0.362,0.765-0.741,0.973-1.274
				c0.208-0.533,0.181-1.267-0.196-1.685C96.033,386.898,95.016,387.294,94.502,386.587z"/>
			<path style="fill:#8376C1;" d="M127.611,391.044c-0.23-0.621,0.139-1.411-0.037-2.061c-0.13-0.478-0.551-0.766-0.968-0.746
				c-0.417,0.02-0.816,0.306-1.109,0.691c-0.311,0.409-0.578,0.974-1.019,1.048c-0.226,0.038-0.443-0.072-0.652-0.164
				c-0.522-0.229-1.074-0.365-1.636-0.401c-0.142-0.009-0.295-0.008-0.418,0.09c-0.158,0.126-0.217,0.371-0.264,0.593
				c-0.229,1.091-0.454,2.268-0.131,3.283c0.176,0.553,0.501,1.004,0.821,1.443c0.366,0.503,0.731,1.006,1.097,1.51
				c0.243,0.335,0.497,0.679,0.836,0.852l-0.624,0.328c0.413,0.385,1.087,0.275,1.445-0.235c0.104-0.149,0.182-0.322,0.283-0.474
				c0.255-0.38,0.634-0.589,0.999-0.784c0.533-0.285,1.066-0.57,1.598-0.855c0.461-0.246,0.937-0.506,1.281-0.963
				c0.344-0.457,0.517-1.171,0.267-1.676C129.001,391.757,127.915,391.863,127.611,391.044z"/>
			<path style="fill:#8376C1;" d="M147.367,375.383c-0.185-0.156-0.416-0.248-0.646-0.321c-0.389-0.124-0.797-0.204-1.156-0.4
				c-0.359-0.196-0.671-0.542-0.684-0.95c-0.017-0.506,0.407-1.052,0.122-1.47c-0.093-0.136-0.248-0.221-0.409-0.256
				c-0.449-0.094-0.887,0.174-1.267,0.43c-0.591,0.398-1.182,0.796-1.774,1.194c-0.24,0.162-0.492,0.337-0.613,0.6
				c-0.131,0.285-0.083,0.616-0.072,0.929c0.036,0.992-0.336,1.994-1.013,2.721l0.144,0.491c0.325-0.027,0.608,0.197,0.878,0.38
				c1.319,0.897,3.137,1,4.548,0.256c0.176-0.093,0.354-0.206,0.445-0.383c0.189-0.367-0.024-0.931,0.323-1.155
				c0.156-0.101,0.358-0.074,0.544-0.089c0.44-0.036,0.844-0.357,0.978-0.778C147.848,376.163,147.705,375.667,147.367,375.383z"/>
			<path style="fill:#8376C1;" d="M133.064,378.006c-0.24,0.03-0.464,0.138-0.674,0.258c-0.355,0.202-0.69,0.447-1.077,0.578
				c-0.387,0.131-0.853,0.125-1.162-0.141c-0.383-0.331-0.497-1.013-0.997-1.087c-0.163-0.024-0.331,0.032-0.465,0.128
				c-0.374,0.266-0.473,0.769-0.543,1.223c-0.108,0.704-0.217,1.408-0.325,2.113c-0.044,0.287-0.086,0.59,0.025,0.858
				c0.121,0.29,0.396,0.479,0.634,0.683c0.754,0.646,1.238,1.6,1.313,2.59l0.458,0.227c0.201-0.257,0.558-0.314,0.875-0.387
				c1.554-0.361,2.862-1.627,3.272-3.168c0.051-0.192,0.089-0.4,0.021-0.587c-0.141-0.388-0.7-0.614-0.63-1.021
				c0.032-0.183,0.189-0.313,0.303-0.46c0.272-0.348,0.31-0.862,0.091-1.247C133.964,378.181,133.503,377.95,133.064,378.006z"/>
			<rect x="87.226" y="412.854" style="fill:#D1A454;" width="47.229" height="6.623"/>
		</g>
	</g>
	<g>
		<rect x="171.889" y="119.776" style="fill:#CE364C;" width="186.73" height="344.83"/>
		<polygon style="opacity:0.25;fill:#231F20;" points="358.619,119.776 358.619,203.246 296.149,203.246 283.029,330.596 
			185.199,203.246 171.889,203.246 171.889,119.776 		"/>
		<g>
			<rect x="186.879" y="126.896" style="fill:#DEC9F4;" width="162.66" height="337.71"/>
			<polygon style="opacity:0.1;fill:#231F20;" points="349.539,126.896 349.539,430.876 238.359,319.696 224.789,126.896 			"/>
			<g>
				<g>
					<polygon style="fill:#C4BFFF;" points="349.819,338.296 349.539,338.296 349.539,441.776 296.149,441.776 300.909,345.236 
						301.249,338.296 301.409,335.166 302.589,311.246 302.739,308.116 303.919,284.196 304.069,281.066 305.159,259.016 
						345.909,259.016 346.019,261.336 346.569,272.386 346.999,281.066 347.069,282.566 347.149,284.196 347.859,298.556 
						348.329,308.116 348.359,308.736 348.479,311.246 349.079,323.276 349.539,332.646 349.659,335.166 349.689,335.686 					"/>
					<polygon style="fill:#DEC9F4;" points="349.819,338.296 349.539,338.296 349.539,441.776 325.529,441.776 325.529,261.336 
						349.539,261.336 349.539,332.646 349.659,335.166 349.689,335.686 					"/>
					<g>
						<rect x="344.059" y="272.386" style="fill:#C4BFFF;" width="5.48" height="10.18"/>
						
							<rect x="328.466" y="270.159" transform="matrix(-1 -1.224647e-16 1.224647e-16 -1 671.1342 552.7264)" style="fill:#C4BFFF;" width="14.202" height="12.408"/>
						<rect x="339.709" y="353.156" style="fill:#C4BFFF;" width="9.83" height="10.18"/>
						
							<rect x="324.114" y="350.927" transform="matrix(-1 -1.224647e-16 1.224647e-16 -1 662.4309 714.2615)" style="fill:#C4BFFF;" width="14.202" height="12.408"/>
						<rect x="327.426" y="292.739" style="fill:#C4BFFF;" width="18.307" height="15.994"/>
						<rect x="346.869" y="298.556" style="fill:#C4BFFF;" width="2.67" height="10.18"/>
						<rect x="323.916" y="325.508" style="fill:#C4BFFF;" width="11.651" height="10.179"/>
						<polygon style="fill:#C4BFFF;" points="349.689,335.686 336.579,335.686 336.579,323.276 349.539,323.276 349.539,332.646 
							349.659,335.166 						"/>
						<rect x="348.479" y="401.176" style="fill:#C4BFFF;" width="1.06" height="15.99"/>
						<rect x="323.942" y="374.219" style="fill:#C4BFFF;" width="18.307" height="15.994"/>
						<rect x="343.389" y="380.036" style="fill:#C4BFFF;" width="6.15" height="10.18"/>
						<rect x="320.432" y="406.988" style="fill:#C4BFFF;" width="11.651" height="10.179"/>
						<rect x="333.095" y="404.76" style="fill:#C4BFFF;" width="14.202" height="12.408"/>
					</g>
					<g>
						<rect x="300.849" y="281.066" style="fill:#EEDAFF;" width="48.69" height="3.13"/>
						<rect x="300.899" y="308.116" style="fill:#EEDAFF;" width="48.64" height="3.13"/>
						<polygon style="fill:#EEDAFF;" points="349.819,338.296 300.939,338.296 300.939,335.166 349.659,335.166 349.689,335.686 
													"/>
						<rect x="300.989" y="362.216" style="fill:#EEDAFF;" width="48.55" height="3.13"/>
						<rect x="301.029" y="389.266" style="fill:#EEDAFF;" width="48.51" height="3.13"/>
						<rect x="301.069" y="416.316" style="fill:#EEDAFF;" width="48.47" height="3.13"/>
					</g>
				</g>
				<rect x="186.879" y="441.776" style="fill:#C4BFFF;" width="162.66" height="22.83"/>
			</g>
			<polygon style="opacity:0.1;fill:#231F20;" points="349.819,338.296 349.539,338.296 349.539,393.866 348.069,392.396 
				329.889,374.216 325.529,369.856 321.019,365.346 317.889,362.216 300.909,345.236 301.249,338.296 300.939,338.296 
				300.939,335.166 301.409,335.166 302.589,311.246 300.899,311.246 300.899,308.116 302.739,308.116 303.919,284.196 
				300.849,284.196 300.849,281.066 304.069,281.066 305.159,259.016 345.909,259.016 346.019,261.336 349.539,261.336 
				349.539,332.646 349.659,335.166 349.689,335.686 			"/>
		</g>
		<g>
			<rect x="180.199" y="126.896" style="fill:#BA2744;" width="77.16" height="337.71"/>
			<rect x="185.199" y="126.896" style="fill:#F24052;" width="77.16" height="337.71"/>
			<rect x="192.009" y="163.722" style="fill:#BA2744;" width="63.543" height="262"/>
			<rect x="192.009" y="163.722" style="fill:#594287;" width="61.017" height="262"/>
			<polygon style="opacity:0.25;fill:#231F20;" points="262.359,126.896 262.359,303.686 257.359,297.176 185.199,203.246 
				180.199,203.246 180.199,126.896 			"/>
			<polygon style="fill:#CFECFF;" points="260.36,256.936 260.36,262.334 266.22,262.334 266.22,311.991 260.36,311.991 
				260.36,317.389 269.693,317.389 269.693,256.936 			"/>
			<polygon style="fill:#FFFFFF;" points="258.359,256.936 258.359,262.334 264.219,262.334 264.219,311.991 258.359,311.991 
				258.359,317.389 267.692,317.389 267.692,256.936 			"/>
		</g>
		<path style="opacity:0.25;fill:#231F20;" d="M358.619,126.866v38.6c-1.96,0.59-4.04,0.9-6.19,0.9c-11.94,0-21.61-9.67-21.61-21.61
			c0,5.97-2.42,11.37-6.33,15.28c-3.91,3.91-9.31,6.33-15.28,6.33c-11.94,0-21.61-9.67-21.61-21.61c0,11.94-9.68,21.61-21.62,21.61
			c-11.93,0-21.61-9.67-21.61-21.61c0,5.97-2.42,11.37-6.33,15.28c-3.91,3.91-9.31,6.33-15.28,6.33c-11.93,0-21.61-9.67-21.61-21.61
			c0,5.97-2.42,11.37-6.33,15.28c-3.91,3.91-9.31,6.33-15.28,6.33c-2.7,0-5.28-0.49-7.65-1.4v-38.1H358.619z"/>
	</g>
	<g>
		<rect x="407.969" y="119.776" style="fill:#CE364C;" width="178.42" height="230.62"/>
		<g>
			<rect x="415.389" y="126.896" style="fill:#6D5BA8;" width="163.58" height="215.49"/>
			<g>
				<g>
					<polygon style="fill:#594287;" points="509.599,342.386 460.619,342.386 460.819,338.296 460.979,335.166 462.159,311.246 
						462.309,308.116 463.49,284.196 463.639,281.066 464.729,259.016 505.49,259.016 505.599,261.336 506.149,272.386 
						506.579,281.066 506.649,282.566 506.729,284.196 507.439,298.556 507.909,308.116 507.939,308.736 508.059,311.246 
						508.659,323.276 509.24,335.166 509.27,335.686 509.399,338.296 					"/>
					<rect x="485.109" y="261.336" style="fill:#6D5BA8;" width="90.09" height="81.05"/>
					<g>
						
							<rect x="541.464" y="266.573" transform="matrix(-1 -1.224647e-16 1.224647e-16 -1 1101.2341 549.1402)" style="fill:#594287;" width="18.307" height="15.994"/>
						
							<rect x="511.542" y="319.693" transform="matrix(-1 -1.224647e-16 1.224647e-16 -1 1041.3904 655.3806)" style="fill:#594287;" width="18.307" height="15.994"/>
						
							<rect x="528.671" y="272.388" transform="matrix(-1 -1.224647e-16 1.224647e-16 -1 1068.9937 554.9551)" style="fill:#594287;" width="11.651" height="10.179"/>
						
							<rect x="503.638" y="272.388" transform="matrix(-1 -1.224647e-16 1.224647e-16 -1 1018.9276 554.9551)" style="fill:#594287;" width="11.651" height="10.179"/>
						
							<rect x="488.044" y="270.159" transform="matrix(-1 -1.224647e-16 1.224647e-16 -1 990.291 552.7264)" style="fill:#594287;" width="14.202" height="12.408"/>
						
							<rect x="516.155" y="268.762" transform="matrix(-1 -1.224647e-16 1.224647e-16 -1 1043.9607 551.3291)" style="fill:#594287;" width="11.651" height="13.805"/>
						<rect x="487.004" y="292.739" style="fill:#594287;" width="18.307" height="15.994"/>
						<rect x="506.452" y="298.554" style="fill:#594287;" width="11.651" height="10.179"/>
						<rect x="531.485" y="298.554" style="fill:#594287;" width="11.651" height="10.179"/>
						<rect x="531.485" y="325.508" style="fill:#594287;" width="11.651" height="10.179"/>
						<rect x="483.494" y="325.508" style="fill:#594287;" width="11.651" height="10.179"/>
						<rect x="544.528" y="296.325" style="fill:#594287;" width="14.202" height="12.408"/>
						<rect x="496.157" y="323.279" style="fill:#594287;" width="14.202" height="12.408"/>
						<rect x="518.968" y="294.927" style="fill:#594287;" width="11.651" height="13.805"/>
						<rect x="544.791" y="321.882" style="fill:#594287;" width="11.651" height="13.805"/>
					</g>
					<g>
						
							<rect x="460.433" y="281.067" transform="matrix(-1 -1.224647e-16 1.224647e-16 -1 1028.9065 565.2666)" style="fill:#8376C1;" width="108.041" height="3.133"/>
						
							<rect x="460.476" y="308.116" transform="matrix(-1 -1.224647e-16 1.224647e-16 -1 1028.9939 619.3655)" style="fill:#8376C1;" width="108.041" height="3.134"/>
						
							<rect x="460.52" y="335.165" transform="matrix(-1 -1.224647e-16 1.224647e-16 -1 1029.0814 673.4645)" style="fill:#8376C1;" width="108.041" height="3.134"/>
						<polygon style="fill:#8376C1;" points="578.969,259.016 578.969,342.386 550.709,342.386 550.919,338.296 551.039,335.686 
							551.069,335.166 551.719,321.886 552.25,311.246 552.37,308.736 552.399,308.116 552.979,296.326 553.579,284.196 
							553.659,282.566 553.729,281.066 554.449,266.576 554.709,261.336 554.819,259.016 						"/>
					</g>
				</g>
				<g>
					<rect x="415.389" y="261.336" style="fill:#6D5BA8;" width="19.72" height="81.05"/>
					<g>
						<rect x="415.389" y="266.576" style="fill:#594287;" width="4.29" height="15.99"/>
						<rect x="415.389" y="296.326" style="fill:#594287;" width="3.25" height="12.41"/>
						<rect x="415.389" y="321.886" style="fill:#594287;" width="0.96" height="13.8"/>
					</g>
					<g>
						<rect x="415.389" y="281.066" style="fill:#8376C1;" width="13" height="3.13"/>
						<rect x="415.389" y="308.116" style="fill:#8376C1;" width="13.04" height="3.13"/>
						<rect x="415.389" y="335.166" style="fill:#8376C1;" width="13.08" height="3.13"/>
						<polygon style="fill:#8376C1;" points="459.599,342.386 415.389,342.386 415.389,259.016 455.49,259.016 						"/>
					</g>
				</g>
			</g>
			<polygon style="opacity:0.25;fill:#FFFFFF;" points="533.099,126.896 415.389,244.606 415.389,126.896 			"/>
			<polygon style="opacity:0.25;fill:#FFFFFF;" points="573.229,126.896 415.389,284.746 415.389,260.026 548.519,126.896 			"/>
			<polygon style="opacity:0.25;fill:#FFFFFF;" points="578.969,155.946 578.969,164.246 415.389,327.826 415.389,319.526 			"/>
		</g>
		<path style="opacity:0.25;fill:#231F20;" d="M586.389,125.866v39.42c-0.6,0.05-1.2,0.08-1.81,0.08
			c-11.94,0-21.62-9.67-21.62-21.61c0,5.97-2.42,11.37-6.33,15.28c-3.91,3.91-9.31,6.33-15.28,6.33c-11.93,0-21.61-9.67-21.61-21.61
			c0,11.94-9.67,21.61-21.61,21.61c-11.93,0-21.61-9.67-21.61-21.61c0,5.97-2.42,11.37-6.33,15.28c-3.91,3.91-9.31,6.33-15.28,6.33
			c-11.94,0-21.61-9.67-21.61-21.61c0,5.97-2.42,11.37-6.33,15.28c-3.91,3.91-9.31,6.33-15.28,6.33c-1.27,0-2.51-0.11-3.72-0.33
			v-39.17H586.389z"/>
	</g>
	<path style="fill:#594287;" d="M679.775,474.056H70.225c-2.61,0-4.725-2.116-4.725-4.725l0,0c0-2.61,2.115-4.725,4.725-4.725
		h609.55c2.609,0,4.725,2.115,4.725,4.725l0,0C684.5,471.94,682.384,474.056,679.775,474.056z"/>
	<g>
		<g>
			<g>
				<polygon style="fill:#594287;" points="205.323,68.446 201.153,106.856 157.933,106.856 164.883,68.446 				"/>
				<polygon style="fill:#CFECFF;" points="244.373,106.855 245.765,68.448 205.326,68.448 201.151,106.855 				"/>
				<polygon style="fill:#594287;" points="287.595,106.855 286.203,68.448 245.765,68.448 244.373,106.855 				"/>
				<polygon style="fill:#CFECFF;" points="330.818,106.855 326.642,68.448 286.203,68.448 287.595,106.855 				"/>
				<polygon style="fill:#594287;" points="374.043,106.856 330.813,106.856 326.643,68.446 367.083,68.446 				"/>
			</g>
			<g>
				<path style="fill:#594287;" d="M157.929,106.855v17.889c0,11.935,9.676,21.611,21.611,21.611h0
					c11.935,0,21.611-9.676,21.611-21.611v-17.889H157.929z"/>
				<path style="fill:#CFECFF;" d="M201.151,106.855v17.889c0,11.935,9.676,21.611,21.611,21.611h0
					c11.936,0,21.611-9.676,21.611-21.611v-17.889H201.151z"/>
				<path style="fill:#594287;" d="M244.373,106.855v17.889c0,11.935,9.676,21.611,21.611,21.611l0,0
					c11.936,0,21.611-9.676,21.611-21.611v-17.889H244.373z"/>
				<path style="fill:#CFECFF;" d="M287.595,106.855v17.889c0,11.935,9.676,21.611,21.611,21.611h0
					c11.935,0,21.611-9.676,21.611-21.611v-17.889H287.595z"/>
				<path style="fill:#594287;" d="M330.818,106.855v17.889c0,11.935,9.676,21.611,21.611,21.611h0
					c11.935,0,21.611-9.676,21.611-21.611v-17.889H330.818z"/>
			</g>
		</g>
		<polygon style="opacity:0.25;fill:#FFFFFF;" points="374.043,106.856 157.933,106.856 164.883,68.446 367.083,68.446 		"/>
	</g>
	<g>
		<g>
			<g>
				<polygon style="fill:#594287;" points="437.469,68.446 433.299,106.856 390.079,106.856 397.029,68.446 				"/>
				<polygon style="fill:#CFECFF;" points="476.519,106.855 477.911,68.448 437.472,68.448 433.297,106.855 				"/>
				<polygon style="fill:#594287;" points="519.742,106.855 518.35,68.448 477.911,68.448 476.519,106.855 				"/>
				<polygon style="fill:#CFECFF;" points="562.964,106.855 558.788,68.448 518.35,68.448 519.742,106.855 				"/>
				<polygon style="fill:#594287;" points="606.189,106.856 562.959,106.856 558.789,68.446 599.229,68.446 				"/>
			</g>
			<g>
				<path style="fill:#594287;" d="M390.075,106.855v17.889c0,11.935,9.676,21.611,21.611,21.611h0
					c11.935,0,21.611-9.676,21.611-21.611v-17.889H390.075z"/>
				<path style="fill:#CFECFF;" d="M433.297,106.855v17.889c0,11.935,9.676,21.611,21.611,21.611h0
					c11.935,0,21.611-9.676,21.611-21.611v-17.889H433.297z"/>
				<path style="fill:#594287;" d="M476.519,106.855v17.889c0,11.935,9.676,21.611,21.611,21.611l0,0
					c11.935,0,21.611-9.676,21.611-21.611v-17.889H476.519z"/>
				<path style="fill:#CFECFF;" d="M519.742,106.855v17.889c0,11.935,9.676,21.611,21.611,21.611h0
					c11.935,0,21.611-9.676,21.611-21.611v-17.889H519.742z"/>
				<path style="fill:#594287;" d="M562.964,106.855v17.889c0,11.935,9.676,21.611,21.611,21.611h0
					c11.935,0,21.611-9.676,21.611-21.611v-17.889H562.964z"/>
			</g>
		</g>
		<polygon style="opacity:0.25;fill:#FFFFFF;" points="606.189,106.856 390.079,106.856 397.029,68.446 599.229,68.446 		"/>
	</g>
	<g>
		
			<rect x="464.518" y="183.602" transform="matrix(0.9996 -0.0265 0.0265 0.9996 -5.8914 13.3096)" style="fill:#FFCF7B;" width="67.806" height="89.962"/>
		<g>
			
				<text transform="matrix(0.9997 -0.0265 0.0265 0.9997 472.175 237.8646)" style="fill:#1A4850; font-family:'Cabin-Bold'; font-size:20.1314px;">OPEN</text>
			
				<text transform="matrix(0.9997 -0.0265 0.0265 0.9997 472.4247 219.5634)" style="fill:#1A4850; font-family:'Cabin-Bold'; font-size:14.4041px;">WE ARE</text>
			<g>
				
					<text transform="matrix(0.9997 -0.0265 0.0265 0.9997 472.8615 204.3335)" style="fill:#1A4850; font-family:'Satisfy-Regular'; font-size:15.9557px;">Come in</text>
			</g>
		</g>
		<g>
			<g>
				<g>
					<path style="fill:#1A4850;" d="M507.685,248.585l-1.744,8.274l-9.924,0.425l-2.272-8.102L507.685,248.585 M508.701,246.954
						c-0.004,0-0.008,0-0.013,0l-16.06,0.687c-0.485,0.021-0.824,0.488-0.693,0.956l2.734,9.749
						c0.093,0.332,0.401,0.559,0.745,0.549c0.004,0,0.008,0,0.012,0l11.229-0.48c0.344-0.015,0.634-0.26,0.705-0.597l2.098-9.956
						C509.558,247.386,509.186,246.941,508.701,246.954L508.701,246.954z"/>
				</g>
				<g>
					<path style="fill:#1A4850;" d="M505.789,264.27c-0.705,0.019-1.377-0.233-1.9-0.711c-0.533-0.489-0.844-1.157-0.874-1.88l0,0
						c-0.063-1.493,1.099-2.759,2.591-2.823c1.497-0.074,2.758,1.098,2.823,2.59c0.03,0.725-0.222,1.416-0.711,1.949
						c-0.49,0.532-1.158,0.843-1.881,0.874C505.821,264.269,505.805,264.27,505.789,264.27z M504.6,261.612
						c0.012,0.299,0.142,0.575,0.362,0.778c0.221,0.203,0.475,0.316,0.807,0.294c0.301-0.013,0.578-0.142,0.781-0.363
						c0.203-0.221,0.307-0.507,0.294-0.808c-0.026-0.612-0.542-1.09-1.153-1.074c-0.006,0-0.011,0-0.018,0
						C505.055,260.467,504.573,260.992,504.6,261.612L504.6,261.612z"/>
				</g>
				<g>
					<path style="fill:#1A4850;" d="M494.921,264.736c-1.472,0.039-2.715-1.115-2.778-2.592c-0.063-1.492,1.099-2.758,2.591-2.822
						c0.717-0.025,1.414,0.222,1.947,0.711c0.533,0.489,0.844,1.156,0.875,1.88c0.063,1.492-1.099,2.758-2.591,2.822
						C494.95,264.735,494.935,264.736,494.921,264.736z M494.819,260.906c-0.006,0-0.011,0-0.018,0.001
						c-0.3,0.012-0.576,0.142-0.779,0.362c-0.203,0.221-0.307,0.508-0.294,0.808c0.026,0.612,0.541,1.09,1.152,1.074
						c0.006,0,0.011,0,0.018,0c0.619-0.027,1.1-0.552,1.073-1.17C495.945,261.368,495.43,260.89,494.819,260.906z"/>
				</g>
				<g>
					<path style="fill:#1A4850;" d="M492.369,249.24c-0.139,0.004-0.281-0.029-0.411-0.102l-3.203-1.814
						c-0.38-0.216-0.514-0.7-0.298-1.081c0.214-0.38,0.696-0.515,1.081-0.299l3.202,1.814c0.38,0.216,0.514,0.7,0.298,1.081
						C492.897,249.089,492.639,249.232,492.369,249.24z"/>
				</g>
				<g>
					<path style="fill:#1A4850;" d="M494.015,254.063c-0.432,0.012-0.795-0.325-0.813-0.759c-0.018-0.437,0.32-0.807,0.759-0.826
						l13.614-0.583c0.003,0,0.008,0,0.012,0c0.432-0.011,0.795,0.325,0.813,0.759c0.018,0.437-0.32,0.807-0.759,0.826l-13.614,0.583
						C494.024,254.063,494.019,254.063,494.015,254.063z"/>
				</g>
				<g>
					<path style="fill:#1A4850;" d="M502.707,258.751c-0.023,0.001-0.045,0-0.068-0.002c-0.437-0.025-0.771-0.399-0.745-0.837
						l0.569-9.877c0.024-0.438,0.413-0.769,0.836-0.746c0.437,0.025,0.771,0.4,0.745,0.837l-0.569,9.877
						C503.453,258.418,503.114,258.74,502.707,258.751z"/>
				</g>
				<g>
					<path style="fill:#1A4850;" d="M498.977,258.81c-0.407,0.011-0.761-0.291-0.807-0.703l-1.113-9.806
						c-0.05-0.435,0.262-0.828,0.698-0.877c0.429-0.042,0.828,0.263,0.877,0.699l1.113,9.805c0.05,0.435-0.262,0.828-0.698,0.877
						C499.023,258.808,499.001,258.81,498.977,258.81z"/>
				</g>
			</g>
		</g>
		<polygon style="fill:#D1A454;" points="468.237,181.491 470.547,182.79 461.308,192.317 460.298,190.008 		"/>
		<polygon style="fill:#D1A454;" points="535.001,266.249 537.311,267.548 528.072,277.075 527.061,274.766 		"/>
		<polygon style="fill:#D1A454;" points="534.774,186.659 533.749,189.103 523.221,181.025 525.398,179.755 		"/>
		<polygon style="fill:#D1A454;" points="472.903,274.557 471.879,277.001 461.35,268.922 463.528,267.652 		"/>
	</g>
	<g>
		<path style="fill:#FF8B66;" d="M452.553,197.887c0,0,0.367,36.324-0.043,44.819c-0.287,5.944-43.307,3.844-43.307,3.844
			l-0.417-17.43l32.805,3.845l4.769-37.409L452.553,197.887z"/>
		<path style="fill:#B0D6EA;" d="M406.401,227.826l28.797,3.735c0,0,4.661,5.601-1.339,21.365c0,0-20.333,0-24,6.09L406.401,227.826
			z"/>
		<g>
			<path style="fill:#FF8B66;" d="M298.38,307.432c0.661-0.922,3.612-2.878,3.612-2.878c2.597-1.137,4.054-1.757,5.052-3.02
				c0.704-0.891,3.299-1.381,3.299-1.381s1.078-3.992-1.981-6.547c0,0-2.102,0.83-2.795,0.649c-1.384-0.351-2.517-2.244-5.171-2.364
				c-2.664-0.118-5.936-1.567-5.936-1.567s-1.158,0.899-0.113,1.809c1.057,0.918,3.214,1.153,3.555,1.704
				c0.069,0.112,0.127,0.227,0.166,0.346c0,0,0.002,0.01,0.017,0.028c0.167,0.442,0.174,0.931-0.034,1.278
				c-0.005,0.023-0.019,0.058-0.044,0.085c-0.932,1.273-4.301,2.301-5.84,2.616c-2.141,0.433-5.059,1.197-4.262,2.378
				c0.797,1.181,1.707-0.279,6.629-0.366l0.174,0.472c0.355,0.013-2.618,1.643-5.556,2.55c-2.021,0.63-0.948,1.8-0.232,1.943
				c0.719,0.153,2.659-0.778,4.126-1.215c0.966-0.299,1.97-0.618,2.566-0.81l0.446,0.494c-3.09,2.874-4.731,2.519-4.524,3.73
				c0.204,1.201,3.113,0.077,4.11-0.827c0.433-0.389,1.405-0.892,2.368-1.34c-1.934,2.659-3.254,2.72-2.878,3.647
				C295.526,309.803,297.719,308.354,298.38,307.432z"/>
			<path style="fill:#EF6E4B;" d="M301.857,297.082c-2.119-0.255-3.599-2.58-3.773-2.87c0.167,0.442,0.174,0.931-0.034,1.278
				C299.74,297.712,301.857,297.082,301.857,297.082z"/>
		</g>
		<path style="fill:#FF8B66;" d="M351.914,241.038c0,0-0.812,0.328-2.468,3.092c-1.657,2.764-11.266,35.873-11.266,35.873
			s-17.245,8.817-29.818,13.603l0.786,6.833c0,0,34.001-8.139,36.488-8.69c2.487-0.55,14.154-29.69,14.154-29.69L351.914,241.038z"
			/>
		<path style="fill:#B0D6EA;" d="M356.292,231.336c0,0-3.266,0-13.624,29.104l-2.736,7.212c0,0,5.8,9.07,16.36,8.798l8.533-14.421
			L356.292,231.336z"/>
		<g>
			<path style="fill:#B0D6EA;" d="M322.196,462.845c0,1.019,0.104,1.736,0.104,1.736h29.456c0-0.582-0.01-1.165-0.042-1.736
				c-0.333-7.704-2.766-14.39-2.766-14.39l-7.361-3.161c-0.634,3.795-2.267,6.218-4.315,7.798c-0.541,0.426-1.102,0.78-1.684,1.081
				c-0.27,0.146-0.541,0.281-0.821,0.405c-0.613,0.281-1.248,0.51-1.882,0.697c-2.599,0.79-5.23,0.956-7.07,1.237
				C322.674,457.001,322.196,460.63,322.196,462.845z"/>
			<path style="fill:#0D527C;" d="M322.196,462.845c0,1.019,0.104,1.736,0.104,1.736h29.456c0-0.582-0.01-1.165-0.042-1.736H322.196
				z"/>
			<path style="fill:#0D527C;" d="M335.588,454.173l4.086,1.31l0.863-1.497l-3.265-0.894
				C336.731,453.518,336.17,453.872,335.588,454.173z"/>
			<path style="fill:#0D527C;" d="M332.884,455.276l2.755,1.83l1.695-0.665l-2.568-1.861
				C334.153,454.86,333.518,455.088,332.884,455.276z"/>
		</g>
		<g>
			<path style="fill:#B0D6EA;" d="M374.483,462.845c0.073,0.998,0.333,1.736,0.333,1.736h19.62c0.25-0.572,0.426-1.144,0.551-1.736
				c1.934-9.389-11.104-20.878-11.104-20.878l-4.138,5.521c0,0,0.478,8.838-3.026,10.678
				C374.618,459.268,374.348,461.348,374.483,462.845z"/>
			<path style="fill:#0D527C;" d="M394.986,462.845h-20.504c0.073,0.998,0.333,1.736,0.333,1.736h19.62
				C394.685,464.009,394.862,463.438,394.986,462.845z"/>
			<path style="fill:#0D527C;" d="M377.615,457.462c0,0,8.266-1.885,12.035,0.556v-1.365
				C389.65,456.653,382.697,453.274,377.615,457.462z"/>
			<path style="fill:#0D527C;" d="M379.252,455.365c0,0,5.278-2.413,10.397,0l-0.585-1.376
				C389.065,453.989,382.951,451.677,379.252,455.365z"/>
		</g>
		<path style="fill:#093951;" d="M407.248,311.082c0,18.664-1.837,37.672-2.309,42.494c-0.471,4.822-5.464,58.685-6.167,79.522
			c-0.36,10.674-3.787,23.593-3.787,23.593s-10.169-8.219-15.928-2.113l-1.443-8.328l2.699-6.557c0,0-2.885-5.424-0.524-9.638
			c2.36-4.214,3.084-94.295,3.084-94.295l-4.543-0.291L354.66,439.693v5.937c0,0-2.863,7.561-2.905,12.388l-15.421-4.926
			l2.361-6.842l-0.633-9.769l4.324-12.739c0,0,15.991-99.628,14.767-110.808L407.248,311.082z"/>
		<path style="fill:#CFECFF;" d="M356.292,231.336c0,0,10.898-3.353,26.722-4.098c10.96-0.516,29.488,1.228,29.488,1.228
			c2.287,5.256-3.974,96.885-3.974,96.885s-28.719,1.965-53.38-3.714c0,0,3.746-30.183,3.122-50.864
			S356.292,231.336,356.292,231.336z"/>
		<path style="fill:#EF6E4B;" d="M378.167,219.463c0,0,1.503,6.192-0.79,8.661c0,0,6.212,7.264,12.206-0.058c0,0-1.611-4.07,0-6.713
			L378.167,219.463z"/>
		<g>
			<path style="fill:#FF8B66;" d="M394.735,208.357c0,0,3.181-3.174,3.573,0.537c0.454,4.299-3.451,6.031-4.214,4.663
				C393.33,212.19,394.735,208.357,394.735,208.357z"/>
			<path style="fill:#FF8B66;" d="M372.46,208.581c0,0-3.181-3.174-3.573,0.537c-0.453,4.299,3.451,6.031,4.214,4.664
				C373.865,212.414,372.46,208.581,372.46,208.581z"/>
			<path style="fill:#FF8B66;" d="M383.933,223.93c7.058,0,11.042-4.61,11.042-18.438c0-7.132-3.629-11.507-11.535-11.507
				c-7.906,0-11.236,4.375-11.236,11.507C372.204,220.35,376.641,223.93,383.933,223.93z"/>
			<path style="fill:#DB614D;" d="M374.542,210.424c-0.124,0.709,0.495,1.41,1.382,1.565c0.887,0.155,1.707-0.295,1.83-1.004
				c0.124-0.71-0.495-1.41-1.382-1.565C375.485,209.265,374.666,209.715,374.542,210.424z"/>
			<path style="fill:#DB614D;" d="M389.059,210.81c0.047,0.719,0.814,1.254,1.712,1.195c0.898-0.058,1.589-0.689,1.542-1.407
				c-0.047-0.719-0.813-1.254-1.712-1.195C389.703,209.462,389.013,210.092,389.059,210.81z"/>
			<g>
				<path style="fill:#0C476B;" d="M376.83,203.137c0.092,0.014,0.189-0.008,0.268-0.069c1.124-0.863,2.81-0.558,2.835-0.554
					c0.188,0.031,0.375-0.09,0.411-0.282c0.037-0.192-0.09-0.375-0.281-0.412c-0.074-0.016-2.024-0.366-3.394,0.688
					c-0.155,0.119-0.184,0.34-0.066,0.495C376.661,203.078,376.744,203.123,376.83,203.137z"/>
			</g>
			<g>
				<path style="fill:#0C476B;" d="M390.339,203.186c0.087-0.011,0.169-0.053,0.229-0.126c0.124-0.151,0.101-0.373-0.048-0.497
					c-1.338-1.096-3.295-0.805-3.372-0.792c-0.192,0.03-0.324,0.21-0.294,0.402c0.03,0.193,0.218,0.321,0.403,0.295
					c0.013-0.004,1.73-0.249,2.815,0.641C390.15,203.172,390.246,203.197,390.339,203.186z"/>
			</g>
			<path style="fill:#1A4850;" d="M377.56,207.12c0,0.876,0.395,1.587,0.882,1.587c0.487,0,0.882-0.711,0.882-1.587
				s-0.395-1.587-0.882-1.587C377.955,205.533,377.56,206.244,377.56,207.12z"/>
			<path style="fill:#1A4850;" d="M386.986,207.12c0,0.876,0.395,1.587,0.882,1.587c0.487,0,0.882-0.711,0.882-1.587
				c0-0.876-0.395-1.587-0.882-1.587C387.38,205.533,386.986,206.244,386.986,207.12z"/>
			<path style="fill:#1A4850;" d="M391.841,197.369c0,0-4.909-0.34-15.693-1.114c0,0-3.944,4.107-3.665,14.219
				c0,0-6.315-18.216,12.119-18.216c18.434,0,10.13,17.812,10.13,17.812S395.27,200.782,391.841,197.369z"/>
			<g>
				<path style="fill:#DB614D;" d="M383.487,211.708l0.528-0.532l-1.396-1.387c1.354-1.914,1.346-6.343,1.345-6.541l-0.75,0.004
					c0,0.048,0.007,4.813-1.374,6.311l-0.245,0.266L383.487,211.708z"/>
			</g>
			<path style="fill:#1A4850;" d="M388.171,214.016c0,0-6.947,0.293-10.454-0.635c0,0-0.62,5.052,4.764,5.303
				C388.171,218.949,388.171,214.016,388.171,214.016z"/>
			<path style="fill:#1A4850;" d="M393.866,192.258c0,0-2.634-4.287-10.934-4.203c-7.57,0.077-11.652,3.667-11.843,7.75
				c-0.19,4.083,5.893,4.75,5.893,4.75s-1.667-1-1.667-1.917c0,0,3.322,2.167,8.703,1.917l-2.424-1.5c0,0,7.064,1.565,11.226-0.384
				c0,0,3.194,1.499,3.762,3.775c0,0,2.874-2.641,1.762-6.307C397.233,192.472,393.866,192.258,393.866,192.258z"/>
		</g>
		<path style="fill:#D1A454;" d="M403.188,242.931c0,0,1.304-13.115,2.521-15.788h-3.646c0,0-1.992,6.288-2.499,15.788H403.188z"/>
		<path style="fill:#D1A454;" d="M367.057,228.466c0,0-1.25,7.59,0,13.965h-4.463c0,0-0.052-10.752,0.805-13.424L367.057,228.466z"
			/>
		<path style="fill:#FFCF7B;" d="M403.557,239.55c0,0-25.252,4.013-40.875,1.488l-2.45,47.268l-2.74,3.374l-0.877,14.174
			l2.411,1.036l-1.534,56.892c0,0,12.597-0.725,44.753-1.044l4.156-56.181c0,0,2.384-0.333,4.163-1.504v-12.313l-5.349-3.933
			C405.216,288.806,402.636,252.618,403.557,239.55z"/>
		
			<ellipse transform="matrix(0.0194 -0.9998 0.9998 0.0194 107.4669 644.8741)" style="fill:#D1A454;" cx="382.48" cy="267.652" rx="12.832" ry="11.95"/>
		<g>
			<path style="fill:#093951;" d="M382.444,275.189c-0.648,0-1.216-0.111-1.662-0.246c-2.385-0.715-4.301-2.894-4.358-4.29
				c-0.011-0.276,0.203-0.509,0.479-0.521c0.274-0.002,0.508,0.204,0.521,0.479c0.032,0.792,1.478,2.723,3.647,3.374
				c1.591,0.477,3.979,0.367,6.31-2.868c0.161-0.226,0.475-0.277,0.697-0.113c0.225,0.161,0.275,0.474,0.113,0.697
				C386.182,274.492,384.06,275.189,382.444,275.189z"/>
		</g>
		<path style="fill:#093951;" d="M387.227,264.733c-0.014,0.737-0.334,1.329-0.713,1.322c-0.38-0.007-0.676-0.611-0.661-1.349
			c0.014-0.737,0.334-1.329,0.713-1.322C386.945,263.391,387.241,263.995,387.227,264.733z"/>
		<path style="fill:#093951;" d="M379.291,264.579c-0.014,0.737-0.334,1.329-0.713,1.322c-0.38-0.007-0.676-0.611-0.661-1.349
			c0.014-0.737,0.334-1.329,0.713-1.322C379.009,263.238,379.305,263.841,379.291,264.579z"/>
		<g>
			<path style="fill:#FF8B66;" d="M445.73,196.551c0.588,0.628,6.062,2.096,7.291,1.412c1.407-0.782,1.861-2.472,2.974-5.079
				c0,0,1.929-2.968,2.845-3.638c0.916-0.669,2.345-2.876,1.387-3.26c-0.93-0.367-0.979,0.953-3.621,2.911
				c0.439-0.967,0.934-1.944,1.319-2.38c0.895-1.004,1.993-3.923,0.789-4.117c-1.213-0.196-0.843,1.442-3.689,4.557l-0.498-0.441
				c0.186-0.598,0.496-1.604,0.786-2.573c0.424-1.472,1.337-3.42,1.178-4.137c-0.15-0.715-1.33-1.777-1.941,0.249
				c-0.88,2.946-2.483,5.934-2.5,5.579l-0.474-0.169c0.042-4.923,1.494-5.846,0.306-6.632c-1.188-0.787-1.925,2.138-2.339,4.283
				c-0.301,1.542-1.299,4.92-2.563,5.863c-0.027,0.026-0.062,0.039-0.085,0.045c-0.345,0.211-0.835,0.208-1.278,0.046
				c-0.018-0.015-0.028-0.017-0.028-0.017c-0.12-0.037-0.235-0.095-0.347-0.163c-0.553-0.337-0.808-2.492-1.736-3.54
				c-0.92-1.036-1.808,0.13-1.808,0.13s1.479,3.259,1.621,5.922C443.463,194.055,444.754,195.509,445.73,196.551z"/>
			<path style="fill:#EF6E4B;" d="M448.522,192.817c-0.274-2.117-2.612-3.575-2.904-3.747c0.443,0.163,0.932,0.165,1.278-0.046
				C449.133,190.695,448.522,192.817,448.522,192.817z"/>
		</g>
	</g>
</g>
</svg>
